<svg xmlns="http://www.w3.org/2000/svg" viewBox="0 0 141.73 141.73"><defs><style>.a{fill:#ffdc58;}.b{fill:#359800;stroke:#359800;stroke-miterlimit:10;}.c{fill:#0660a9;}</style></defs><title>PopArt-05</title><path class="a" d="M52.48,13.56,44.87,28.1c-1.35,2.57-4.95,4.66-8.19,4.74l-1.79,0L30.67,33h0l-10.57.28L23,43.8a10,10,0,0,1-3,10,12,12,0,0,1-3.1,2L0,63.74l20.65,6.42c2.94.91,3.08,4,.3,6.6l-6.56,6.19h0L7,89.87l13.71,1,15.88-.13c3.17,0,4.86,1.9,3.88,4.42L38,101.64l-5.46,12.09,20.14-8.23c3.61-1.53,7.14-.84,7.75,1.51l.3,1.14,3.92,12.51L78,104.82h0c2.61-2.58,6.95-3.73,9.47-2.51l.45.22,4.5,2.18h0L105.49,111l-2.26-16.2c-.36-2.58,2.72-5.72,6.6-6.74l13.87-3.65-9.32-5.9-1.29-.82c-3-1.89-.7-6.46,4.16-8.33l1.51-.58,2.92-1.12h0L141,60.27,123.72,58.7h0l-15.65-1.43c-2.95-.27-4.24-2.37-3-4.86l3.22-6.37L113,36.79l-8.27,1.49h0L92.5,40.47c-3.23.58-5.63-.68-5.6-2.95L87,30.76l.11-10.87-8.3,3.89h0l-5.63,2.63c-2.89,1.35-5.95,1.31-7.41-.1Z"/><path class="b" d="M62.12,25.05q2.6,1.17,2.38,4.55a10.13,10.13,0,0,1-.91,3.54,16.58,16.58,0,0,1-2.19,3.5,19.39,19.39,0,0,1-6,4.92q-4.31,2.31-7.36.94-2.63-1.18-2.43-4.58a9.81,9.81,0,0,1,.9-3.44A16.27,16.27,0,0,1,48.75,31a19.6,19.6,0,0,1,6-5Q59.05,23.67,62.12,25.05ZM58.5,30.74q-1.35-.61-3.74,1a13.13,13.13,0,0,0-3.11,2.71,7.33,7.33,0,0,0-.94,1.5,2.87,2.87,0,0,0-.25,1.87,2.07,2.07,0,0,0,1.25,1.42,3.43,3.43,0,0,0,3.13-.33,8.07,8.07,0,0,0,2.5-2.15,10,10,0,0,0,1.83-3.55Q59.68,31.27,58.5,30.74Z"/><path class="b" d="M66.74,29.37l4.9,1.26q-3.34,4.15-5.83,7.67l2.23.48L72.58,32l4.9,1.26a125.72,125.72,0,0,0-11,15.59L61.81,48l4.13-6.17-2.29-.5q-1.82,2.81-3,4.86L56,45.39Z"/><path class="b" d="M84,41.53q-.52.63-1,1.25L82.18,44l4.3.93-1.74,3.29q-3-.76-4.77-1.11-.32.45-.61.91l-.61.87,4.87,1.39-2.37,4.42a61.38,61.38,0,0,0-9.72-2.33L82.34,36.09l8.72,2.47L88.69,43Q86.18,42.12,84,41.53Z"/><path class="b" d="M79.51,56.12A109.75,109.75,0,0,0,92.25,41.31L98.55,43l-4.89,8.63,6-7.29,6.08,1.55a127.88,127.88,0,0,0-7.5,14L97.14,62.4,91.73,61l5.72-10.36L88.88,61.14,86,60.29l8.42-14.4L84.92,57.73Z"/><path class="b" d="M108.88,52.7q-.52.63-1,1.25L107,55.18l4.3.93-1.74,3.29q-3-.76-4.77-1.11-.32.45-.61.91l-.61.87,4.87,1.39-2.37,4.42a61.42,61.42,0,0,0-9.72-2.33l10.84-16.29,8.72,2.47-2.37,4.42Q111,53.29,108.88,52.7Z"/><path class="b" d="M16.26,67.34q-2.6-1.17-2.43-4.46a9.14,9.14,0,0,1,.85-3.4,15.67,15.67,0,0,1,2.14-3.38,18,18,0,0,1,5.84-4.78q4.21-2.21,7.23-.85,2.63,1.18,2.41,4.56l-4,1.7a1.6,1.6,0,0,0-1-1.25q-1.67-.75-4.18.89a14.62,14.62,0,0,0-3.38,3.12,6.49,6.49,0,0,0-.89,1.4,2.68,2.68,0,0,0-.21,1.85,2.11,2.11,0,0,0,1.26,1.39A3.17,3.17,0,0,0,22.46,64a7,7,0,0,0,2.23-1.54q-2-.45-3.71-.75l2.4-3.25L30.52,60a11.09,11.09,0,0,1-2.33,3.35A18.28,18.28,0,0,1,25,66Q20.18,69.11,16.26,67.34Z"/><path class="b" d="M28.26,72.74q-2.6-1.17-2.43-4.46a9.14,9.14,0,0,1,.85-3.4,15.67,15.67,0,0,1,2.14-3.38,18,18,0,0,1,5.84-4.78q4.21-2.21,7.23-.85,2.63,1.18,2.41,4.56l-4,1.7a1.61,1.61,0,0,0-1-1.25q-1.67-.75-4.18.9a14.6,14.6,0,0,0-3.38,3.12,6.49,6.49,0,0,0-.89,1.4,2.67,2.67,0,0,0-.21,1.85,2.1,2.1,0,0,0,1.26,1.39,3.17,3.17,0,0,0,2.61-.1,7,7,0,0,0,2.23-1.54q-2-.45-3.71-.75l2.4-3.25,7.15,1.53a11.11,11.11,0,0,1-2.33,3.35,18.35,18.35,0,0,1-3.15,2.6Q32.19,74.5,28.26,72.74Z"/><path class="b" d="M40.27,78.13q-2.6-1.17-2.43-4.45a9.12,9.12,0,0,1,.85-3.4,15.67,15.67,0,0,1,2.14-3.38,18,18,0,0,1,5.84-4.78q4.21-2.21,7.23-.85,2.63,1.18,2.41,4.56l-4,1.7a1.6,1.6,0,0,0-1-1.25q-1.67-.75-4.18.9a14.57,14.57,0,0,0-3.38,3.12,6.43,6.43,0,0,0-.89,1.4,2.67,2.67,0,0,0-.21,1.85,2.11,2.11,0,0,0,1.26,1.39,3.17,3.17,0,0,0,2.61-.1A7,7,0,0,0,48.7,73.3q-2-.45-3.71-.75l2.4-3.25,7.15,1.53a11.08,11.08,0,0,1-2.33,3.35,18.34,18.34,0,0,1-3.15,2.6Q44.2,79.9,40.27,78.13Z"/><path class="b" d="M52.28,83.53q-2.6-1.17-2.42-4.46a9.13,9.13,0,0,1,.85-3.4,15.69,15.69,0,0,1,2.14-3.38,18,18,0,0,1,5.84-4.78q4.21-2.21,7.23-.85,2.63,1.18,2.41,4.56l-4,1.7a1.6,1.6,0,0,0-1-1.25q-1.67-.75-4.18.9a14.58,14.58,0,0,0-3.38,3.12,6.45,6.45,0,0,0-.89,1.4,2.68,2.68,0,0,0-.21,1.85,2.11,2.11,0,0,0,1.26,1.39,3.17,3.17,0,0,0,2.61-.1,7,7,0,0,0,2.23-1.54q-2-.45-3.71-.75l2.4-3.25,7.15,1.53a11.11,11.11,0,0,1-2.33,3.35,18.37,18.37,0,0,1-3.15,2.6Q56.21,85.3,52.28,83.53Z"/><path class="b" d="M64.29,88.93q-2.6-1.17-2.42-4.46a9.13,9.13,0,0,1,.85-3.4,15.67,15.67,0,0,1,2.14-3.38,18,18,0,0,1,5.84-4.78q4.21-2.21,7.23-.85,2.63,1.18,2.41,4.56l-4,1.7a1.6,1.6,0,0,0-1-1.25q-1.67-.75-4.18.9a14.61,14.61,0,0,0-3.38,3.12,6.45,6.45,0,0,0-.89,1.4,2.68,2.68,0,0,0-.21,1.85,2.11,2.11,0,0,0,1.26,1.39,3.17,3.17,0,0,0,2.61-.1,7,7,0,0,0,2.23-1.54q-2-.45-3.71-.75l2.4-3.25,7.15,1.53A11.1,11.1,0,0,1,76.22,85a18.37,18.37,0,0,1-3.15,2.6Q68.22,90.7,64.29,88.93Z"/><path class="b" d="M76.29,94.33q-2.6-1.17-2.42-4.46a9.12,9.12,0,0,1,.85-3.4,15.67,15.67,0,0,1,2.14-3.38,18,18,0,0,1,5.84-4.78q4.21-2.21,7.23-.85,2.63,1.18,2.41,4.56l-4,1.7a1.6,1.6,0,0,0-1-1.25q-1.67-.75-4.18.9a14.58,14.58,0,0,0-3.38,3.12,6.45,6.45,0,0,0-.89,1.4,2.67,2.67,0,0,0-.21,1.85,2.11,2.11,0,0,0,1.26,1.39A3.17,3.17,0,0,0,82.5,91a7,7,0,0,0,2.23-1.54q-2-.45-3.71-.75l2.4-3.25L90.56,87a11.11,11.11,0,0,1-2.33,3.35A18.41,18.41,0,0,1,85.08,93Q80.22,96.09,76.29,94.33Z"/><path class="b" d="M88.3,99.72q-2.6-1.17-2.42-4.45a9.12,9.12,0,0,1,.85-3.4,15.67,15.67,0,0,1,2.14-3.38,18,18,0,0,1,5.84-4.78q4.21-2.21,7.23-.85,2.63,1.18,2.41,4.56l-4,1.7a1.6,1.6,0,0,0-1-1.25q-1.67-.75-4.18.9a14.56,14.56,0,0,0-3.38,3.12,6.43,6.43,0,0,0-.89,1.4,2.67,2.67,0,0,0-.21,1.85,2.11,2.11,0,0,0,1.26,1.39,3.17,3.17,0,0,0,2.61-.1,7,7,0,0,0,2.23-1.54q-2-.45-3.71-.75l2.4-3.25,7.15,1.53a11.1,11.1,0,0,1-2.33,3.35,18.37,18.37,0,0,1-3.15,2.6Q92.23,101.49,88.3,99.72Z"/><path class="b" d="M100.31,105.12q-2.6-1.17-2.42-4.45a9.12,9.12,0,0,1,.85-3.4,15.67,15.67,0,0,1,2.14-3.38,18,18,0,0,1,5.84-4.78q4.21-2.21,7.23-.85,2.63,1.18,2.41,4.56l-4,1.7a1.6,1.6,0,0,0-1-1.25q-1.67-.75-4.18.89a14.61,14.61,0,0,0-3.38,3.12,6.41,6.41,0,0,0-.89,1.4,2.67,2.67,0,0,0-.21,1.85,2.11,2.11,0,0,0,1.26,1.39,3.17,3.17,0,0,0,2.61-.1,7,7,0,0,0,2.23-1.54q-2-.45-3.71-.75l2.4-3.25,7.15,1.53a11.1,11.1,0,0,1-2.33,3.35,18.37,18.37,0,0,1-3.15,2.6Q104.24,106.89,100.31,105.12Z"/><path class="c" d="M61.21,23.89q2.6,1.17,2.38,4.55A10.14,10.14,0,0,1,62.67,32a16.57,16.57,0,0,1-2.19,3.5,19.38,19.38,0,0,1-6,4.92q-4.32,2.31-7.36.94-2.63-1.18-2.43-4.58a9.8,9.8,0,0,1,.9-3.43,16.27,16.27,0,0,1,2.24-3.54,19.61,19.61,0,0,1,6-5Q58.14,22.51,61.21,23.89Zm-3.62,5.69q-1.35-.61-3.74,1a13.1,13.1,0,0,0-3.11,2.71,7.3,7.3,0,0,0-.94,1.5,2.87,2.87,0,0,0-.25,1.87A2.07,2.07,0,0,0,50.8,38a3.43,3.43,0,0,0,3.13-.33,8.06,8.06,0,0,0,2.5-2.15A10,10,0,0,0,58.26,32Q58.76,30.11,57.58,29.58Z"/><path class="c" d="M65.82,28.2l4.9,1.26q-3.34,4.15-5.83,7.67l2.23.48,4.55-6.78,4.9,1.26a125.5,125.5,0,0,0-11,15.59l-4.71-.82L65,40.69l-2.29-.5Q60.91,43,59.75,45L55,44.23Z"/><path class="c" d="M83.11,40.36q-.52.63-1,1.25l-.88,1.23,4.3.93-1.74,3.29Q80.8,46.3,79,46q-.32.45-.61.91l-.61.87,4.87,1.39-2.37,4.42a61.35,61.35,0,0,0-9.72-2.33L81.42,34.92l8.72,2.47-2.37,4.42Q85.27,41,83.11,40.36Z"/><path class="c" d="M78.59,55A109.81,109.81,0,0,0,91.33,40.14l6.3,1.68-4.9,8.63,6-7.29,6.08,1.55a127.94,127.94,0,0,0-7.5,14l-1.14,2.53-5.41-1.37,5.72-10.36L88,60l-2.87-.85,8.42-14.4L84,56.57Z"/><path class="c" d="M108,51.53q-.52.63-1,1.25L106.11,54l4.31.93-1.74,3.29q-3-.76-4.77-1.11-.32.45-.61.91l-.61.87,4.87,1.39-2.37,4.42a61.5,61.5,0,0,0-9.72-2.33l10.84-16.29L115,48.57,112.62,53Q110.12,52.12,108,51.53Z"/><path class="c" d="M15.34,66.18q-2.6-1.17-2.43-4.46a9.13,9.13,0,0,1,.85-3.4,15.67,15.67,0,0,1,2.14-3.38,18,18,0,0,1,5.84-4.78Q25.95,48,29,49.31q2.63,1.18,2.41,4.56l-4,1.7a1.6,1.6,0,0,0-1-1.25q-1.67-.75-4.18.9a14.6,14.6,0,0,0-3.38,3.12,6.47,6.47,0,0,0-.89,1.4,2.68,2.68,0,0,0-.21,1.85A2.11,2.11,0,0,0,18.93,63a3.17,3.17,0,0,0,2.61-.1,7,7,0,0,0,2.23-1.54q-2-.45-3.71-.75l2.4-3.25,7.15,1.53a11.09,11.09,0,0,1-2.33,3.35,18.29,18.29,0,0,1-3.15,2.6Q19.27,67.94,15.34,66.18Z"/><path class="c" d="M27.34,71.57q-2.6-1.17-2.43-4.46a9.13,9.13,0,0,1,.85-3.4,15.63,15.63,0,0,1,2.14-3.38,18,18,0,0,1,5.84-4.79Q38,53.35,41,54.71q2.63,1.18,2.41,4.56l-4,1.7a1.6,1.6,0,0,0-1-1.25q-1.67-.75-4.18.89a14.6,14.6,0,0,0-3.38,3.12,6.47,6.47,0,0,0-.89,1.4A2.68,2.68,0,0,0,29.67,67a2.11,2.11,0,0,0,1.26,1.39,3.17,3.17,0,0,0,2.61-.09,7,7,0,0,0,2.23-1.54q-2-.45-3.71-.75l2.4-3.25,7.15,1.53a11.09,11.09,0,0,1-2.33,3.35,18.24,18.24,0,0,1-3.15,2.6Q31.27,73.34,27.34,71.57Z"/><path class="c" d="M39.35,77q-2.6-1.17-2.43-4.46a9.13,9.13,0,0,1,.85-3.4,15.66,15.66,0,0,1,2.14-3.38A18,18,0,0,1,45.75,61Q50,58.75,53,60.1q2.63,1.18,2.41,4.56l-4,1.7a1.61,1.61,0,0,0-1-1.25q-1.67-.75-4.18.9a14.59,14.59,0,0,0-3.38,3.12,6.47,6.47,0,0,0-.89,1.4,2.68,2.68,0,0,0-.21,1.85,2.11,2.11,0,0,0,1.26,1.39,3.17,3.17,0,0,0,2.61-.1,7,7,0,0,0,2.23-1.54q-2-.45-3.71-.75l2.4-3.25,7.15,1.53A11.11,11.11,0,0,1,51.29,73a18.26,18.26,0,0,1-3.15,2.6Q43.28,78.74,39.35,77Z"/><path class="c" d="M51.36,82.37q-2.6-1.17-2.43-4.45a9.15,9.15,0,0,1,.85-3.4,15.64,15.64,0,0,1,2.14-3.38,18,18,0,0,1,5.84-4.79Q62,64.15,65,65.5q2.63,1.18,2.41,4.56l-4,1.7a1.6,1.6,0,0,0-1-1.25q-1.67-.75-4.18.89a14.59,14.59,0,0,0-3.38,3.12,6.49,6.49,0,0,0-.89,1.4,2.68,2.68,0,0,0-.21,1.85A2.11,2.11,0,0,0,55,79.17a3.17,3.17,0,0,0,2.61-.1,7,7,0,0,0,2.23-1.54q-2-.45-3.71-.75l2.4-3.25,7.15,1.53a11.09,11.09,0,0,1-2.33,3.35A18.21,18.21,0,0,1,60.15,81Q55.29,84.14,51.36,82.37Z"/><path class="c" d="M63.37,87.77q-2.6-1.17-2.43-4.46a9.15,9.15,0,0,1,.85-3.4,15.67,15.67,0,0,1,2.14-3.38,18,18,0,0,1,5.84-4.78Q74,69.54,77,70.9q2.63,1.18,2.41,4.56l-4,1.7a1.61,1.61,0,0,0-1-1.25q-1.67-.75-4.18.9a14.57,14.57,0,0,0-3.38,3.12,6.47,6.47,0,0,0-.89,1.4,2.68,2.68,0,0,0-.21,1.85A2.11,2.11,0,0,0,67,84.57a3.17,3.17,0,0,0,2.61-.1,7,7,0,0,0,2.23-1.54q-2-.45-3.71-.75l2.4-3.25,7.15,1.53a11.12,11.12,0,0,1-2.33,3.35,18.26,18.26,0,0,1-3.15,2.6Q67.3,89.53,63.37,87.77Z"/><path class="c" d="M75.38,93.16Q72.77,92,73,88.71a9.15,9.15,0,0,1,.85-3.4,15.64,15.64,0,0,1,2.14-3.38,18,18,0,0,1,5.84-4.79Q86,74.94,89,76.3q2.63,1.18,2.41,4.56l-4,1.7a1.6,1.6,0,0,0-1-1.25q-1.67-.75-4.18.9a14.59,14.59,0,0,0-3.38,3.12,6.47,6.47,0,0,0-.89,1.4,2.68,2.68,0,0,0-.21,1.85A2.11,2.11,0,0,0,79,90a3.17,3.17,0,0,0,2.61-.1,7,7,0,0,0,2.23-1.54q-2-.45-3.71-.75l2.4-3.25,7.15,1.53a11.11,11.11,0,0,1-2.33,3.35,18.21,18.21,0,0,1-3.15,2.6Q79.31,94.93,75.38,93.16Z"/><path class="c" d="M87.38,98.56q-2.6-1.17-2.43-4.46a9.13,9.13,0,0,1,.85-3.4,15.65,15.65,0,0,1,2.14-3.38,18,18,0,0,1,5.84-4.78Q98,80.34,101,81.69q2.63,1.18,2.41,4.56l-4,1.7a1.6,1.6,0,0,0-1-1.25q-1.67-.75-4.18.9a14.57,14.57,0,0,0-3.38,3.12,6.47,6.47,0,0,0-.89,1.4A2.68,2.68,0,0,0,89.71,94,2.11,2.11,0,0,0,91,95.36a3.17,3.17,0,0,0,2.61-.1,7,7,0,0,0,2.23-1.54q-2-.45-3.71-.75l2.4-3.25,7.15,1.53a11.12,11.12,0,0,1-2.33,3.35,18.26,18.26,0,0,1-3.15,2.6Q91.31,100.33,87.38,98.56Z"/><path class="c" d="M99.39,104q-2.6-1.17-2.43-4.45a9.13,9.13,0,0,1,.85-3.4A15.67,15.67,0,0,1,100,92.73a18,18,0,0,1,5.84-4.78q4.21-2.21,7.23-.85,2.63,1.18,2.41,4.56l-4,1.7a1.6,1.6,0,0,0-1-1.25q-1.67-.75-4.18.9a14.57,14.57,0,0,0-3.38,3.12,6.49,6.49,0,0,0-.89,1.4,2.68,2.68,0,0,0-.21,1.85,2.11,2.11,0,0,0,1.26,1.39,3.17,3.17,0,0,0,2.61-.1,7,7,0,0,0,2.23-1.54q-2-.45-3.71-.75l2.4-3.25,7.15,1.53a11.11,11.11,0,0,1-2.33,3.35,18.22,18.22,0,0,1-3.15,2.6Q103.32,105.73,99.39,104Z"/></svg>