<svg xmlns="http://www.w3.org/2000/svg" viewBox="0 0 141.73 141.73"><defs><style>.a{fill:#be1f3e;}.b{stroke:#000;stroke-miterlimit:10;}.c{fill:#ffdc58;}</style></defs><title>PopArt-05</title><path class="a" d="M83.08,126.5c0-.13,4.17-13.09,10.55-14a10.65,10.65,0,0,1,2.2-.07c7.5.51,14.29,8.46,14.36,8.54l4.32,5.15-1.36-7c-1.25-6.4-1.57-14.37.1-16.08.26-.26,1.44-1.1,5.93-.79a77.23,77.23,0,0,1,12.92,2.41l6.14,1.74L133.53,101a66.44,66.44,0,0,1-5.84-8c-2.41-3.91-3.67-7.07-3.62-9.15.06-2.57,2.81-4.52,5.11-5.7,2.79-1.43,12.56-4.89,12.56-4.89s-19.41-7.79-20.26-12c-.64-3.14.79-6.75,2.11-9.22a30.35,30.35,0,0,1,3.23-4.87l4.63-5.42L125,43.49a38,38,0,0,1-10.27.91c-3.69-.25-6.41-1.22-8.08-2.89C102.15,37,102.46,25.08,102.46,25l.16-5-3.13,2.88c-.08.07-7.94,7.22-15.12,6.73a9.41,9.41,0,0,1-1.21-.16c-7.5-1.51-12.49-14-12.54-14.16l-1.75-4.47L67.33,15a49.6,49.6,0,0,1-2.89,6.27c-2.21,4-4.4,6.39-6.33,6.94a6.64,6.64,0,0,1-2.28.2c-6.65-.46-15.83-8-15.92-8.08l-4.24-3.51,1.61,5.81c1.12,4.06,2.63,13.34.1,16.06-.67.72-2.62,1.88-8.17,1.5a55.81,55.81,0,0,1-9.68-1.67L13.2,36.8l4.94,5.46c.07.08,6.95,7.79,6.53,14.67C24.25,64,13.2,66.09,13.09,66.11l-9.28,1.7,9.46,2.61a46.31,46.31,0,0,1,8.27,3.29c3.69,1.92,6.1,4,7,5.89,1.8,4-2.6,11.68-5,14.81l-4.07,5.26,6-1.53a32.87,32.87,0,0,1,9.08-.8c3.58.24,6.25,1.23,7.94,2.94s3.05,5,4.2,9.7a64.24,64.24,0,0,1,1.3,7.08l.51,4.49L51,118.63c.07-.07,6.81-7.55,13.62-7.08a8.42,8.42,0,0,1,2.45.54c7.77,3,12.66,14.23,12.71,14.34l1.91,4.5Z"/><path class="b" d="M6.18,35.47A35.71,35.71,0,0,1,16.9,32.58q5-.35,7.82,2.09A12.68,12.68,0,0,1,29,43.54a18.65,18.65,0,0,1-.21,4.18,32.46,32.46,0,0,1-9,17.93A32.64,32.64,0,0,1,2.34,75.56q0-1.24.65-7.41L5.64,42.09Q6.18,36.26,6.18,35.47Zm8.62,8.67q-1.79,11.15-2.44,21a37.88,37.88,0,0,0,5.44-7.81Q20.67,52,20.41,48.3,20.08,43.55,14.8,44.14Z"/><path class="b" d="M48.83,30.19q5.92.15,8.2,6.84a21.25,21.25,0,0,1,1.09,7.55,34.68,34.68,0,0,1-1.39,8.49,40.49,40.49,0,0,1-7.52,14.28q-6.41,7.92-13.33,7.74-6-.16-8.31-6.84a20.52,20.52,0,0,1-1-7.32A34,34,0,0,1,28,52.33,40.92,40.92,0,0,1,35.44,38Q41.85,30,48.83,30.19ZM46.46,44.05q-3.07-.08-6.38,4.88a27.29,27.29,0,0,0-3.77,7.7,15.19,15.19,0,0,0-.6,3.63,6,6,0,0,0,1,3.79,4.3,4.3,0,0,0,3.53,1.72q3.13.08,5.73-3.16A16.84,16.84,0,0,0,49,56.46a21,21,0,0,0,.66-8.29Q49.14,44.12,46.46,44.05Z"/><path class="b" d="M80.56,33.71q5.85.89,7.28,7.81A21.25,21.25,0,0,1,88,49.14a34.71,34.71,0,0,1-2.44,8.25,40.51,40.51,0,0,1-9.25,13.23q-7.35,7.05-14.19,6-5.91-.9-7.4-7.82a20.52,20.52,0,0,1-.12-7.4,34,34,0,0,1,2.52-8.36,40.9,40.9,0,0,1,9.2-13.29Q73.66,32.65,80.56,33.71ZM76.48,47.16q-3-.46-6.95,4a27.32,27.32,0,0,0-4.71,7.17,15.24,15.24,0,0,0-1,3.53,6,6,0,0,0,.54,3.88,4.3,4.3,0,0,0,3.29,2.15q3.09.47,6.07-2.42a16.84,16.84,0,0,0,3.81-5.72,21,21,0,0,0,1.69-8.14Q79.13,47.56,76.48,47.16Z"/><path class="b" d="M96.29,41.46l10.41,1.32q-5.82,9.44-10.06,17.37l4.71.42L109,45.36l10.41,1.32Q107,66.88,100.8,81.76l-9.91-.46,6.93-13.83L93,67q-3,6.29-4.9,10.82l-9.91-.46Z"/><path class="b" d="M111.26,78.94a5.36,5.36,0,0,1,2.9,2,3,3,0,0,1,.43,3.3q-1.09,2.34-4.47,3.11a9.36,9.36,0,0,1-5.06-.13,5.79,5.79,0,0,1-2.95-1.87,3,3,0,0,1-.38-3.27,6.23,6.23,0,0,1,4.4-3.21A9.17,9.17,0,0,1,111.26,78.94Zm20.48-29,9.75,6.72q-7.74,5.61-11.7,9a111.1,111.1,0,0,0-10.67,10.44l-6.89-3.59Z"/><path class="c" d="M4.71,32.91a36,36,0,0,1,10.73-3q5-.41,7.88,2a12.64,12.64,0,0,1,4.39,8.81,18.45,18.45,0,0,1-.16,4.18,32.44,32.44,0,0,1-8.87,18A32.84,32.84,0,0,1,1.32,73q0-1.24.57-7.42L4.24,39.53Q4.71,33.7,4.71,32.91Zm8.76,8.56q-1.67,11.17-2.2,21.07a38,38,0,0,0,5.37-7.87q2.82-5.41,2.51-9.1Q18.76,40.81,13.46,41.47Z"/><path class="c" d="M47.47,27.1q5.95.08,8.32,6.73A21.14,21.14,0,0,1,57,41.37a34.45,34.45,0,0,1-1.29,8.51,40.44,40.44,0,0,1-7.38,14.38Q42,72.25,35,72.15q-6-.08-8.44-6.74a20.45,20.45,0,0,1-1.13-7.31,33.86,33.86,0,0,1,1.35-8.62,40.83,40.83,0,0,1,7.32-14.43Q40.46,27,47.47,27.1ZM45.26,41q-3.08,0-6.35,5a27.32,27.32,0,0,0-3.7,7.75,15.15,15.15,0,0,0-.55,3.64,6,6,0,0,0,1.07,3.77,4.33,4.33,0,0,0,3.57,1.68q3.14,0,5.71-3.23a16.81,16.81,0,0,0,3-6.19,20.86,20.86,0,0,0,.56-8.3Q48,41,45.26,41Z"/><path class="c" d="M79.33,30.22q5.89.82,7.42,7.72A21.16,21.16,0,0,1,87,45.57a34.51,34.51,0,0,1-2.34,8.28,40.43,40.43,0,0,1-9.11,13.34q-7.28,7.14-14.17,6.18-5.95-.83-7.53-7.73a20.43,20.43,0,0,1-.21-7.39A33.87,33.87,0,0,1,56,49.86,40.84,40.84,0,0,1,65.1,36.45Q72.39,29.26,79.33,30.22Zm-3.92,13.5q-3.06-.43-6.92,4.13a27.3,27.3,0,0,0-4.63,7.23,15.2,15.2,0,0,0-1,3.54,6,6,0,0,0,.59,3.88,4.32,4.32,0,0,0,3.33,2.11q3.11.44,6.07-2.5a16.81,16.81,0,0,0,3.75-5.76,20.89,20.89,0,0,0,1.59-8.16Q78.08,44.1,75.41,43.72Z"/><path class="c" d="M95.22,37.79,105.69,39q-5.7,9.52-9.85,17.5l4.74.36L108,41.54l10.47,1.19Q106.35,63.08,100.34,78l-10-.34,6.76-13.92-4.86-.37q-3,6.32-4.76,10.88l-10-.34Z"/><path class="c" d="M110.79,75.1A5.41,5.41,0,0,1,113.73,77a3,3,0,0,1,.49,3.29q-1.06,2.36-4.44,3.17a9.43,9.43,0,0,1-5.08-.07,5.85,5.85,0,0,1-3-1.84,3,3,0,0,1-.43-3.27,6.22,6.22,0,0,1,4.36-3.27A9.24,9.24,0,0,1,110.79,75.1ZM130.9,45.88l9.89,6.61q-7.68,5.71-11.61,9.11a110.73,110.73,0,0,0-10.54,10.57l-7-3.51Z"/></svg>