<svg xmlns="http://www.w3.org/2000/svg" viewBox="0 0 266.13 266.13"><defs><style>.a{fill:#f7931e;}.b{fill:#29abe2;stroke:#29abe2;stroke-miterlimit:10;}.c{fill:#be1f3e;}</style></defs><title>PopArt-05</title><path class="a" d="M113.94,229.54c-.08-.23-8-22.69-20.22-24.23a22.55,22.55,0,0,0-4.21-.13C75.14,206.07,62.13,219.85,62,220l-8.28,8.93,2.61-12.08c2.4-11.1,3-24.91-.19-27.89-.49-.46-2.75-1.9-11.37-1.37-10.77.67-24.2,4-24.77,4.18l-11.76,3,9-9.38a116.67,116.67,0,0,0,11.19-13.83c4.63-6.78,7-12.26,6.94-15.87-.11-4.46-5.38-7.83-9.79-9.88a64.25,64.25,0,0,0-15.53-4.68l-8.55-3.8,8.91-3.7c11.44-2.72,28.29-9.8,29.91-17,1.22-5.45-1.52-11.7-4-16a52.72,52.72,0,0,0-6.19-8.45l-8.87-9.39,12.38,2.8a80.14,80.14,0,0,0,19.68,1.57c7.08-.44,12.29-2.12,15.48-5,8.6-7.77,8-28.48,8-28.69l-.3-8.61,6,5c.15.13,15.22,12.52,29,11.66a19.84,19.84,0,0,0,2.32-.28c14.38-2.62,23.95-24.33,24-24.55l3.35-7.76,2.94,7.33a82.24,82.24,0,0,0,5.55,10.87c4.23,6.91,8.43,11.08,12.13,12a14,14,0,0,0,4.36.34c12.75-.79,30.34-13.89,30.51-14l8.12-6.08-3.08,10.08c-2.16,7-5,23.13-.2,27.85,1.28,1.25,5,3.26,15.65,2.6a117.15,117.15,0,0,0,18.56-2.9L247.87,74l-9.47,9.48c-.13.13-13.31,13.5-12.51,25.44.82,12.23,22,15.88,22.19,15.91l17.78,2.95-18.14,4.53A94.5,94.5,0,0,0,231.89,138c-7.07,3.33-11.69,6.86-13.38,10.21-3.45,6.86,5,20.26,9.61,25.67l7.8,9.13-11.43-2.65a69.37,69.37,0,0,0-17.4-1.39c-6.86.42-12,2.14-15.22,5.09-3.06,2.8-5.85,8.62-8.06,16.82a101.81,101.81,0,0,0-2.49,12.27l-1,7.78-4.94-5.06c-.13-.13-13-13.09-26.1-12.28a17.59,17.59,0,0,0-4.69.93c-14.89,5.17-24.27,24.67-24.36,24.86l-3.65,7.8Z"/><path class="b" d="M17.45,118.7A610.4,610.4,0,0,0,50.16,55L79.1,54.7q-9.28,27.4-14.91,66l-20.38,1.44L47,110.71l-6.4.23-3.24,7.87ZM50.51,98.44,60.32,64l-.09,0L45.82,98.61Z"/><path class="b" d="M89.23,62.53l16.41.6q-17.79,34.69-26.78,61l-15.47.77Z"/><path class="b" d="M73.75,127.21a610.67,610.67,0,0,0,41-58.72l28.71,3.63q-12.9,25.9-23.69,63.35l-20.38-1.32,4.74-10.86-6.37-.64L93.5,130Zm35.49-15.61,14.38-32.78-.09,0-19,32.33Z"/><path class="b" d="M153.22,81.81l16.13,3.1q-22.9,31.56-35.81,56.21l-15.4-1.61Z"/><path class="b" d="M127.81,142.85a610.34,610.34,0,0,0,50.68-50.61l27.62,8.61q-17.25,23.23-34.44,58.21l-19.84-4.88,6.57-9.86-6.16-1.75-5.5,6.5Zm37.68-9.14L185.39,104l-.08,0L161,132.43Z"/><path class="b" d="M215,113.13l15.17,6.29q-28.78,26.3-46.41,47.84L169,162.58Z"/><path class="b" d="M203.55,167.51a9,9,0,0,1,3.94,4.38,5,5,0,0,1-.61,5.55q-2.72,3.37-8.54,3.27a15.75,15.75,0,0,1-8.19-2.25,9.77,9.77,0,0,1-4.06-4.24,5,5,0,0,1,.69-5.49q2.72-3.37,8.46-3.46A15.44,15.44,0,0,1,203.55,167.51Zm45-38.93,13.21,14.87q-14.87,6-22.68,9.89a186.17,186.17,0,0,0-21.58,12.71l-9.8-8.63Z"/><path class="c" d="M17.29,113.41A609.52,609.52,0,0,0,50.13,49.74l29-.24q-9.32,27.39-15,65.95l-20.43,1.41L47,105.47l-6.42.22-3.25,7.87ZM50.45,93.2,60.31,58.8l-.09,0L45.75,93.36Z"/><path class="c" d="M89.26,57.34l16.46.62Q87.87,92.63,78.85,119l-15.51.75Z"/><path class="c" d="M73.73,122a609.37,609.37,0,0,0,41.12-58.67L143.63,67q-12.93,25.89-23.75,63.33L99.44,129l4.75-10.85-6.39-.65-4.29,7.36Zm35.58-15.56,14.41-32.76-.09,0-19,32.31Z"/><path class="c" d="M153.36,76.7l16.17,3.13Q146.59,111.36,133.65,136l-15.44-1.63Z"/><path class="c" d="M127.94,137.74A609.26,609.26,0,0,0,178.7,87.18l27.69,8.66Q189.13,119.06,171.92,154L152,149.11l6.58-9.85-6.18-1.76L146.93,144Zm37.75-9.09,19.93-29.73-.08,0-24.37,28.48Z"/><path class="c" d="M215.23,108.11l15.21,6.32Q201.63,140.7,184,162.24l-14.8-4.7Z"/><path class="c" d="M203.85,162.52a9.07,9.07,0,0,1,4,4.39,5,5,0,0,1-.61,5.55q-2.72,3.37-8.55,3.26a15.82,15.82,0,0,1-8.21-2.26,9.81,9.81,0,0,1-4.07-4.25,5,5,0,0,1,.68-5.5q2.72-3.37,8.46-3.46A15.49,15.49,0,0,1,203.85,162.52Zm45-38.92,13.25,14.91q-14.88,6-22.7,9.87a185.64,185.64,0,0,0-21.59,12.7L208,152.43Z"/></svg>