<svg xmlns="http://www.w3.org/2000/svg" viewBox="0 0 141.73 141.73"><defs><style>.a{fill:#006847;}.b{stroke:#000;stroke-miterlimit:10;}.c{fill:#0660a9;}</style></defs><title>PopArt-05</title><path class="a" d="M141.73,80.48l-12-11.35a6.13,6.13,0,0,1-.56-8l1-1.36,2.35-3.2h0l5.9-8-13.65-1.92c-3.65-.51-5.65-4.75-3.93-8.34L135,8.7,96.23,34.65a5.12,5.12,0,0,1-7.67-2.33L85.4,25h0l-3.54-8.2-9.16,9.9-9.18,12a5.2,5.2,0,0,1-7.3,1.19l-5.89-4.4L39.81,26.64,37.32,44.93a5.71,5.71,0,0,1-6.27,5.23l-1.48-.22L13.08,48,23.22,64.18h0a6.19,6.19,0,0,1-2.72,8.08l-.51.25L14.88,75h0L0,82.38,19.71,87a5.73,5.73,0,0,1,3.78,7.56l-4,11.82,12.16-4.7,1.69-.65c3.9-1.51,7.74,2,7,6.35l-.23,1.36-.44,2.63h0l-2.91,17.34,11.91-12.32h0l10.81-11.18a5.14,5.14,0,0,1,7.26-.35l5.33,4.88,7.76,7.1L83,110h0l4.69-10A5.42,5.42,0,0,1,94.33,97L102,99.65l12.27,4.3.47-7.73h0L115,91a6,6,0,0,1,4.46-5.52Z"/><path class="b" d="M40.22,47l.85-3.2a6.73,6.73,0,0,1-3.81-3.31A8.26,8.26,0,0,1,37,34.79c1.08-4.05,4.29-6.59,8.19-6.38L46,25.22l1.92.42-.83,3.12a7.57,7.57,0,0,1,3.18,1.57l-1.2,2a6.06,6.06,0,0,0-3-1.54c-3-.7-5.57,1.4-6.4,4.5-.93,3.5.59,6.06,3.28,6.73a8,8,0,0,0,3.73.07l0,2.13a8.46,8.46,0,0,1-3.67.06l-.85,3.21Z"/><path class="b" d="M59.93,27.72l5.73.17Q64,30.81,62.45,33.81l3.08.5,2.26-4.87,5.86.19q-1.6,2.73-3,5.52l4.36.71-2.18,4.7-2.28-.45-2.23-.44Q67.58,41,67,42.32l4.19.73-1.87,4.74-4.41-.88q-.45,1-.85,2l-.82,2-5.42.12L60.16,46l-3.24-.56Q56.11,47.2,55.44,49l-5.29.13,2-4.48-1.52-.21-1.53-.25,1-4.84,4.17.74,1.15-2.51q-1.48-.25-3-.41l1.22-4.79,3.92.63Zm.24,10.57q-.41.88-1.27,2.61l3.31.59,1.25-2.66Z"/><path class="b" d="M89.84,40.5,87,40.87l-2.85.36q.42-1.55-.46-1.75a3.71,3.71,0,0,0-2.87.81,2.55,2.55,0,0,0-1.24,1.8c0,.43.31.73,1.07.91a13.73,13.73,0,0,0,2.08.25,13.39,13.39,0,0,1,2.09.25q3.38.79,3,3.46-.44,3.25-5,6.25-.45,1.65-.84,3.23l-.74,3.26-4,1,1.48-5.47a7.92,7.92,0,0,1-2.06.49l-.58,2.16Q75.9,59,75.7,60.06l-3.95,1,1.48-5.49a6.87,6.87,0,0,1-3-1.63q1.34-1.73,4.18-5.08a4,4,0,0,0,2.06,1.27,4.14,4.14,0,0,0,1.18.12,8.7,8.7,0,0,0,2.14-.27q1.54-.39,1.74-1.15t-1.16-1.16a15,15,0,0,0-2.79-.28,14.69,14.69,0,0,1-2.8-.28q-2.93-.71-2.3-3.18c.49-2,2.29-4.18,5.44-6.64L80,29.38l4.14-.47q-.79,2.51-1.64,5.38.91-.46,2-.89l1.24-4.58,4.15-.52-1.16,4.27a2.54,2.54,0,0,1,2.32,2,6.6,6.6,0,0,1-.26,3.32A24.92,24.92,0,0,1,89.84,40.5Z"/><path class="b" d="M105.89,50.75a6.25,6.25,0,0,1,.1,1.62,5.49,5.49,0,0,1-.53,1.94,10.41,10.41,0,0,1-5.61,5.09,13.36,13.36,0,0,1-7.68.92A8.82,8.82,0,0,1,87,57.55a5.41,5.41,0,0,1-1.29-5.35A8.72,8.72,0,0,1,89,47.51a13.42,13.42,0,0,1,4.44-2.21A4.29,4.29,0,0,1,92.18,41q.86-3.16,4.66-4.87a11.74,11.74,0,0,1,6.67-.93,8.84,8.84,0,0,1,3.76,1.43,5.13,5.13,0,0,1,2.22,3.12l-7.15,2.65a1.78,1.78,0,0,0-1.73-1.29,3.7,3.7,0,0,0-1.89.25,2.18,2.18,0,0,0-1.31,1.17,1.3,1.3,0,0,0,.13,1.46,2.18,2.18,0,0,0,1.49.74l1.79.23,3.81.52q2.76.42,5.78.72l-1,5.23Q108.85,51.23,105.89,50.75Zm-6.6-1.1-1.95-.32a5,5,0,0,0-2.86.31,3.55,3.55,0,0,0-2.09,1.81,1.94,1.94,0,0,0,.22,2.19,3.49,3.49,0,0,0,2.18,1.18,5.55,5.55,0,0,0,3-.31,3.35,3.35,0,0,0,2-1.81,2.71,2.71,0,0,0,.13-1.59A3,3,0,0,0,99.29,49.64Z"/><path class="b" d="M29.6,68a7.58,7.58,0,0,1,2.65.78l.08-.17a8.62,8.62,0,0,1,1.25.27,10.84,10.84,0,0,1,1,.39q.69.29,1,.38a8.47,8.47,0,0,0,1.42.29q-1.48,2.69-2.74,5l-2.69,5c3-1.09,5-2.34,6.11-3.75a6.41,6.41,0,0,0,1.18-2.25q.78-2.94-2.21-5.69a14.36,14.36,0,0,0-5.76-3.17q-5.4-1.56-9.09.65A8.32,8.32,0,0,0,18.13,71,17.12,17.12,0,0,0,18,77.56l-6.4,1.36a30.83,30.83,0,0,1,.88-7.71A15.88,15.88,0,0,1,17.26,63a14,14,0,0,1,7.31-3.17,19.4,19.4,0,0,1,8.07.61,20.63,20.63,0,0,1,8.72,4.79q4.38,4.14,3.23,8.49-.84,3.16-5.18,6.95C37,82.72,33.63,84,29.24,84.35L26.77,81l1.08-2.4a9.06,9.06,0,0,1-5.06-.11,5.06,5.06,0,0,1-2.63-1.78,3.53,3.53,0,0,1-.63-3.16q.76-2.86,4.28-4.53A10.57,10.57,0,0,1,29.6,68Zm-2.75,5.2a3.31,3.31,0,0,0-1.8.37,2,2,0,0,0-1.17,1.28c-.19.71.13,1.19.95,1.44A3,3,0,0,0,27,76.09a2.2,2.2,0,0,0,1.21-1A1,1,0,0,0,28,73.82,1.8,1.8,0,0,0,26.85,73.19Z"/><path class="b" d="M58.41,81.4a6.39,6.39,0,0,1,.07,1.54A5.37,5.37,0,0,1,58,84.76a9,9,0,0,1-5,4.61,10.91,10.91,0,0,1-6.78.57,8,8,0,0,1-4.57-2.83A5.54,5.54,0,0,1,40.56,82a8,8,0,0,1,3-4.34,11.08,11.08,0,0,1,3.94-1.92,4.39,4.39,0,0,1-1.06-4.17A6.73,6.73,0,0,1,50.6,67.1a9.57,9.57,0,0,1,5.9-.62A7.79,7.79,0,0,1,59.79,68,5.11,5.11,0,0,1,61.71,71l-6.34,2.23A1.67,1.67,0,0,0,53.87,72a3,3,0,0,0-1.67.16A1.88,1.88,0,0,0,51,73.2a1.32,1.32,0,0,0,.1,1.39,2,2,0,0,0,1.3.76l1.57.3,3.36.65q2.43.51,5.08.91l-.91,4.93Q61,82,58.41,81.4ZM52.6,80.08l-1.71-.38a4.06,4.06,0,0,0-2.52.18,3.08,3.08,0,0,0-1.87,1.64,2,2,0,0,0,.17,2.09,3.17,3.17,0,0,0,1.91,1.21,4.53,4.53,0,0,0,2.62-.18A2.9,2.9,0,0,0,53,83a2.73,2.73,0,0,0,.13-1.5A3.12,3.12,0,0,0,52.6,80.08Z"/><path class="b" d="M84.39,74.91,89.19,78q-5.86,3.86-10.69,7.24a12.38,12.38,0,0,1,2.26.28,7.37,7.37,0,0,1,4.73,3,4.3,4.3,0,0,1,.62,3.61,5.13,5.13,0,0,1-.45,1.09,7.78,7.78,0,0,1-4.8,3.68,11.19,11.19,0,0,1-6.23.24,8.59,8.59,0,0,1-3.57-1.77A4.76,4.76,0,0,1,69.36,92Q66.9,93.79,64,96.18l-4.59-2.46,11-8.31a10,10,0,0,1-3.14-.22,6.84,6.84,0,0,1-4.51-2.9,4.18,4.18,0,0,1-.57-3.43,5.28,5.28,0,0,1,.43-1.09,7.72,7.72,0,0,1,4.55-3.68,10.9,10.9,0,0,1,6.06-.43A7.54,7.54,0,0,1,77,75.55a4.48,4.48,0,0,1,1.59,3.75ZM70.18,79.2a3.35,3.35,0,0,0-2,.2,2,2,0,0,0-1.27,1.32q-.38,1.42,1.54,1.86a3.24,3.24,0,0,0,2-.18,2,2,0,0,0,1.25-1.32,1.23,1.23,0,0,0-.3-1.2A2.06,2.06,0,0,0,70.18,79.2Zm7.46,11.93a3.72,3.72,0,0,0-2.05.18,1.91,1.91,0,0,0-1.3,1.3,1.26,1.26,0,0,0,.34,1.28,2.35,2.35,0,0,0,1.21.63,3.63,3.63,0,0,0,2.05-.16,1.89,1.89,0,0,0,1.27-1.3,1.25,1.25,0,0,0-.31-1.24A2.21,2.21,0,0,0,77.63,91.13Z"/><path class="b" d="M105.57,85.16q-2.35.54-4.87,1.2l2.63,3.12L99.54,91.6q-.3-.34-1.72-2.2-.57,1.37-1.06,2.75l-4.18-.53,1.53-3.5q-.59.19-1.76.53l-1.76.53-1.24-3.33,4.53-1.2q-1.19-1.36-2.55-2.87l3.35-2.66,2.25,2.73,1.4-3.26,3.88,1.05-.79,1.61q-.37.81-.7,1.59L105,81.67Z"/><path class="b" d="M103.4,101.82a4,4,0,0,1,2.17,1,2,2,0,0,1,.7,2.08,3.57,3.57,0,0,1-2.59,2.31,6.37,6.37,0,0,1-3.35.26,4.28,4.28,0,0,1-2.16-1,1.94,1.94,0,0,1-.65-2,3.67,3.67,0,0,1,2.48-2.35A6.26,6.26,0,0,1,103.4,101.82Zm10-20.11L121,85.12q-4.58,4.29-6.84,6.77a65.61,65.61,0,0,0-5.86,7.53l-5-1.77Z"/><path class="c" d="M39.63,45.26l.85-3.19a6.75,6.75,0,0,1-3.83-3.3,8.19,8.19,0,0,1-.29-5.71c1.07-4,4.29-6.59,8.21-6.38l.84-3.17,1.93.42L46.52,27a7.6,7.6,0,0,1,3.2,1.56l-1.2,2a6.12,6.12,0,0,0-3-1.53c-3.06-.69-5.6,1.41-6.42,4.5-.93,3.5.6,6,3.3,6.71a8.1,8.1,0,0,0,3.75.07l0,2.13a8.5,8.5,0,0,1-3.69.07l-.85,3.2Z"/><path class="c" d="M59.42,26l5.76.16Q63.51,29.06,62,32.06l3.1.49,2.26-4.86,5.9.18q-1.61,2.73-3.05,5.52l4.38.71-2.18,4.7-2.29-.45-2.24-.43c-.47.89-.9,1.77-1.3,2.63l4.21.72L68.89,46l-4.44-.88c-.3.68-.58,1.35-.85,2l-.82,2-5.44.12,2.35-5.11-3.25-.56q-.82,1.79-1.49,3.58l-5.32.14,2.05-4.48-1.53-.21-1.54-.25,1-4.83,4.19.73,1.15-2.51q-1.49-.25-3.05-.41l1.21-4.79,3.94.62Zm.26,10.55q-.41.89-1.27,2.61l3.33.59L63,37.06Z"/><path class="c" d="M89.51,38.72l-2.85.37-2.86.36q.42-1.55-.47-1.75a3.76,3.76,0,0,0-2.88.81,2.54,2.54,0,0,0-1.24,1.8q-.07.64,1.08.91a13.62,13.62,0,0,0,2.09.24,13.73,13.73,0,0,1,2.11.25c2.26.53,3.28,1.68,3,3.45q-.44,3.24-5,6.25-.44,1.64-.84,3.23L81,57.91l-4,1,1.48-5.46a8.05,8.05,0,0,1-2.07.49l-.58,2.15q-.25,1.09-.45,2.19l-4,1,1.48-5.48a7,7,0,0,1-3-1.63Q71.17,50.4,74,47.05a4,4,0,0,0,2.07,1.27,4.26,4.26,0,0,0,1.18.11,8.74,8.74,0,0,0,2.16-.28Q81,47.77,81.17,47T80,45.86a14.82,14.82,0,0,0-2.81-.27,15,15,0,0,1-2.82-.28q-2.95-.71-2.31-3.18.73-3,5.46-6.64l2.06-7.88,4.16-.47q-.79,2.51-1.64,5.38.91-.46,2-.89l1.24-4.57,4.17-.52-1.16,4.27a2.55,2.55,0,0,1,2.33,2,6.53,6.53,0,0,1-.25,3.32A24.88,24.88,0,0,1,89.51,38.72Z"/><path class="c" d="M105.68,48.94a6.23,6.23,0,0,1,.1,1.62,5.45,5.45,0,0,1-.53,1.94,10.42,10.42,0,0,1-5.63,5.08,13.48,13.48,0,0,1-7.72.92,8.89,8.89,0,0,1-5.24-2.75,5.38,5.38,0,0,1-1.31-5.34,8.7,8.7,0,0,1,3.33-4.7,13.5,13.5,0,0,1,4.46-2.21,4.27,4.27,0,0,1-1.28-4.33q.86-3.16,4.68-4.87a11.88,11.88,0,0,1,6.71-.94A9,9,0,0,1,107,34.79a5.13,5.13,0,0,1,2.24,3.12l-7.19,2.65a1.79,1.79,0,0,0-1.74-1.28,3.72,3.72,0,0,0-1.9.25,2.17,2.17,0,0,0-1.32,1.16,1.29,1.29,0,0,0,.13,1.45,2.2,2.2,0,0,0,1.5.73l1.8.23,3.84.52q2.78.42,5.82.71l-1,5.23Q108.66,49.42,105.68,48.94ZM99,47.84l-2-.32a5,5,0,0,0-2.87.32,3.56,3.56,0,0,0-2.1,1.81,1.92,1.92,0,0,0,.23,2.19A3.5,3.5,0,0,0,94.52,53a5.59,5.59,0,0,0,3-.31,3.35,3.35,0,0,0,2-1.8,2.69,2.69,0,0,0,.13-1.59A3,3,0,0,0,99,47.84Z"/><path class="c" d="M29,66.23a7.69,7.69,0,0,1,2.66.78l.08-.18A9.18,9.18,0,0,1,33,67.1q.35.1,1,.39t1,.38a8.39,8.39,0,0,0,1.43.29q-1.49,2.69-2.74,5l-2.7,5c3-1.09,5-2.34,6.13-3.75a6.38,6.38,0,0,0,1.18-2.25q.78-2.94-2.23-5.68a14.44,14.44,0,0,0-5.8-3.16q-5.43-1.56-9.13.65a8.3,8.3,0,0,0-3.74,5.27,17,17,0,0,0-.15,6.56L10.9,77.15a30.57,30.57,0,0,1,.87-7.7,15.82,15.82,0,0,1,4.83-8.23A14,14,0,0,1,23.95,58a19.59,19.59,0,0,1,8.11.61,20.79,20.79,0,0,1,8.77,4.78q4.41,4.13,3.26,8.48-.84,3.15-5.2,6.94c-2.4,2.07-5.81,3.31-10.21,3.7l-2.49-3.33,1.08-2.4a9.17,9.17,0,0,1-5.09-.11,5.1,5.1,0,0,1-2.64-1.77,3.51,3.51,0,0,1-.63-3.16q.76-2.85,4.3-4.53A10.67,10.67,0,0,1,29,66.23Zm-2.75,5.19a3.34,3.34,0,0,0-1.81.37,2,2,0,0,0-1.18,1.28q-.28,1.06,1,1.44a3,3,0,0,0,2.14-.2,2.2,2.2,0,0,0,1.22-1A1,1,0,0,0,27.45,72,1.84,1.84,0,0,0,26.26,71.42Z"/><path class="c" d="M58,79.59a6.4,6.4,0,0,1,.07,1.54A5.34,5.34,0,0,1,57.56,83a9,9,0,0,1-5,4.61,11,11,0,0,1-6.82.58,8,8,0,0,1-4.6-2.82A5.51,5.51,0,0,1,40,80.19a7.94,7.94,0,0,1,3-4.34,11.15,11.15,0,0,1,4-1.92,4.37,4.37,0,0,1-1.08-4.17,6.73,6.73,0,0,1,4.18-4.45A9.66,9.66,0,0,1,56,64.69a7.82,7.82,0,0,1,3.32,1.5,5.11,5.11,0,0,1,1.94,3.05l-6.36,2.23a1.67,1.67,0,0,0-1.52-1.29,3,3,0,0,0-1.68.16,1.88,1.88,0,0,0-1.17,1.05,1.31,1.31,0,0,0,.1,1.39,2,2,0,0,0,1.31.76l1.58.29,3.38.65q2.44.51,5.11.91l-.91,4.92C60.77,80.22,59.73,80,58,79.59Zm-5.84-1.31-1.72-.38a4.12,4.12,0,0,0-2.54.19A3.08,3.08,0,0,0,46,79.73a2,2,0,0,0,.17,2.09A3.18,3.18,0,0,0,48.1,83a4.57,4.57,0,0,0,2.63-.18,2.92,2.92,0,0,0,1.81-1.63,2.73,2.73,0,0,0,.13-1.5A3.11,3.11,0,0,0,52.14,78.28Z"/><path class="c" d="M84.1,73.1l4.83,3.11Q83,80.07,78.18,83.45a12.37,12.37,0,0,1,2.28.28,7.43,7.43,0,0,1,4.77,3,4.29,4.29,0,0,1,.63,3.61,5.13,5.13,0,0,1-.45,1.09,7.8,7.8,0,0,1-4.82,3.68,11.31,11.31,0,0,1-6.26.24,8.66,8.66,0,0,1-3.59-1.77A4.75,4.75,0,0,1,69,90.14Q66.54,92,63.58,94.36L59,91.91,70.06,83.6a10.22,10.22,0,0,1-3.15-.21,6.89,6.89,0,0,1-4.54-2.9,4.15,4.15,0,0,1-.58-3.43A5.26,5.26,0,0,1,62.22,76a7.74,7.74,0,0,1,4.57-3.68,11,11,0,0,1,6.09-.44,7.61,7.61,0,0,1,3.79,1.88,4.47,4.47,0,0,1,1.61,3.74ZM69.81,77.39a3.37,3.37,0,0,0-2,.2,2,2,0,0,0-1.28,1.32q-.38,1.42,1.55,1.86a3.26,3.26,0,0,0,2-.18,2,2,0,0,0,1.25-1.32A1.23,1.23,0,0,0,71,78.07,2.07,2.07,0,0,0,69.81,77.39Zm7.52,11.92a3.76,3.76,0,0,0-2.06.18,1.91,1.91,0,0,0-1.3,1.3,1.25,1.25,0,0,0,.35,1.28,2.38,2.38,0,0,0,1.22.63,3.67,3.67,0,0,0,2.06-.16,1.89,1.89,0,0,0,1.28-1.3A1.25,1.25,0,0,0,78.56,90,2.22,2.22,0,0,0,77.33,89.31Z"/><path class="c" d="M105.41,83.33q-2.36.54-4.9,1.2l2.65,3.12-3.8,2.12q-.3-.34-1.74-2.2-.57,1.37-1.06,2.75l-4.21-.53,1.53-3.5q-.59.19-1.77.53l-1.77.53L89.1,84l4.55-1.2q-1.2-1.36-2.57-2.87l3.37-2.66L96.71,80l1.4-3.26,3.91,1-.79,1.61q-.37.81-.7,1.59l4.34-1.15Z"/><path class="c" d="M103.26,100a4.05,4.05,0,0,1,2.18,1,2,2,0,0,1,.71,2.08,3.58,3.58,0,0,1-2.6,2.3,6.48,6.48,0,0,1-3.37.26,4.33,4.33,0,0,1-2.17-1,1.94,1.94,0,0,1-.66-2.05,3.67,3.67,0,0,1,2.49-2.35A6.34,6.34,0,0,1,103.26,100Zm10.06-20.1,7.58,3.41q-4.6,4.29-6.87,6.77a65.67,65.67,0,0,0-5.88,7.53l-5.06-1.76Z"/></svg>