<svg xmlns="http://www.w3.org/2000/svg" viewBox="0 0 141.73 141.73"><defs><style>.a{fill:#ffdc58;}.b{fill:#359800;stroke:#359800;stroke-miterlimit:10;}.c{fill:#0660a9;}</style></defs><title>PopArt-05</title><path class="a" d="M52.48,13.56,44.87,28.1c-1.35,2.57-4.95,4.66-8.19,4.74l-1.79,0L30.67,33h0l-10.57.28L23,43.8a10,10,0,0,1-3,10,12,12,0,0,1-3.1,2L0,63.74l20.65,6.42c2.94.91,3.08,4,.3,6.6l-6.56,6.19h0L7,89.87l13.71,1,15.88-.13c3.17,0,4.86,1.9,3.88,4.42L38,101.64l-5.46,12.09,20.14-8.23c3.61-1.53,7.14-.84,7.75,1.51l.3,1.14,3.92,12.51L78,104.82h0c2.61-2.58,6.95-3.73,9.47-2.51l.45.22,4.5,2.18h0L105.49,111l-2.26-16.2c-.36-2.58,2.72-5.72,6.6-6.74l13.87-3.65-9.32-5.9-1.29-.82c-3-1.89-.7-6.46,4.16-8.33l1.51-.58,2.92-1.12h0L141,60.27,123.72,58.7h0l-15.65-1.43c-2.95-.27-4.24-2.37-3-4.86l3.22-6.37L113,36.79l-8.27,1.49h0L92.5,40.47c-3.23.58-5.63-.68-5.6-2.95L87,30.76l.11-10.87-8.3,3.89h0l-5.63,2.63c-2.89,1.35-5.95,1.31-7.41-.1Z"/><path class="b" d="M64.88,49.76A174.21,174.21,0,0,0,78.7,34.63l8,2.1a107.94,107.94,0,0,0-9.07,17.09l-5.75-1.14,1.75-2.9-1.79-.42-1.49,1.93Zm10.67-3.1,5.29-8.76h0l-6.58,8.47Z"/><path class="b" d="M88.24,39l4.58,1.11a134,134,0,0,0-11,15.57L77.41,55Z"/><path class="b" d="M26.87,41.88q3.38,1.52,3.32,5.91L24.7,50.18a2.55,2.55,0,0,0-1.37-1.56q-1.72-.77-4.91,1.35a15.83,15.83,0,0,0-4,3.66,9.11,9.11,0,0,0-1,1.72,3.35,3.35,0,0,0,.25,3.71,2.69,2.69,0,0,0,1,.76q1.69.76,4.67-.91l-.7,4.34q-4.83,2.13-8.15.64t-3.34-5.8A12.22,12.22,0,0,1,8.22,53a19.53,19.53,0,0,1,2.29-3.78A22.18,22.18,0,0,1,17.77,43Q23,40.14,26.87,41.88Z"/><path class="b" d="M14.37,66.29a230.76,230.76,0,0,0,18.31-20L43.31,49a143,143,0,0,0-12,22.63l-7.61-1.51L26,66.32l-2.37-.56-2,2.55ZM28.5,62.18l7-11.61,0,0L26.76,61.78Z"/><path class="b" d="M44.48,51.68a33.51,33.51,0,0,1,9,2.23q4.39,2,3,5-2,4.38-9.49,6.33-.1,1.44.28,9.47-2.38.8-7.14,2.3l.57-10.53h0l0,0Q38,70.37,36,73.8l-5.79-.88q.39-.68,2.66-4Zm1.79,7q-.79,1-1.51,2l-1.45,2a12.84,12.84,0,0,0,2.93-.52,6.68,6.68,0,0,0,2.64-1.35,1.25,1.25,0,0,0,.41-.48q.32-.71-.62-1.14A8.19,8.19,0,0,0,46.26,58.66Z"/><path class="b" d="M40.91,78.22a230.76,230.76,0,0,0,18.31-20L69.86,61a142.94,142.94,0,0,0-12,22.63L50.23,82.1l2.32-3.85-2.37-.56-2,2.55ZM55,74.11l7-11.61,0,0L53.3,73.71Z"/><path class="b" d="M55.29,84.41A145.25,145.25,0,0,0,72.17,64.79L80.51,67,74,78.44l8-9.65,8.06,2.06a169.55,169.55,0,0,0-9.93,18.53l-1.51,3.35-7.16-1.81,7.57-13.72L67.71,91.05l-3.8-1.12L75.07,70.86,62.47,86.54Z"/><path class="b" d="M91.74,73.08q1.11.3,4.3.88a37.53,37.53,0,0,1,4.3,1q.6.23,1.15.48,4.29,1.93,2.89,5-1.94,4.33-9.22,6.25,3.45,1.28,3,3.63a4.9,4.9,0,0,1-.33,1A8.07,8.07,0,0,1,93.3,95.2a19.5,19.5,0,0,1-5.94,1.39,16.06,16.06,0,0,1-8-1.5c-.43-.19-.86-.4-1.29-.62q4.27-6.1,10.85-16.67Q90.76,74.83,91.74,73.08ZM89.11,88.16q-.82,1.12-2.06,3.1,5.21.66,6-1.13.29-.65-.85-1.16A13.75,13.75,0,0,0,89.11,88.16Zm5.71-7.91q-.74,1-1.45,1.93l-1.42,1.94a9.89,9.89,0,0,0,4.9-1.86,1.72,1.72,0,0,0,.53-.58q.25-.55-.6-.93A8.06,8.06,0,0,0,94.82,80.25Z"/><path class="b" d="M89.77,100.18a230.79,230.79,0,0,0,18.31-20l10.63,2.79a143,143,0,0,0-12,22.63l-7.61-1.51,2.32-3.85L99,99.66l-2,2.56Zm14.13-4.11,7-11.61,0,0-8.71,11.21Z"/><path class="b" d="M112.54,103.54a3.43,3.43,0,0,1,1.87,1.23,1.88,1.88,0,0,1,.31,2.09,3.82,3.82,0,0,1-2.82,2,6,6,0,0,1-3.23,0,3.72,3.72,0,0,1-1.9-1.17,1.88,1.88,0,0,1-.28-2.08,4,4,0,0,1,2.77-2.08A5.88,5.88,0,0,1,112.54,103.54ZM125.31,85l6.29,4.19q-4.88,3.63-7.38,5.79a70.5,70.5,0,0,0-6.7,6.72l-4.43-2.23Z"/><path class="c" d="M64,48.59A174.28,174.28,0,0,0,77.78,33.47l8,2.1a107.85,107.85,0,0,0-9.07,17.09L71,51.52l1.75-2.9L71,48.19l-1.49,1.93Zm10.66-3.1,5.29-8.76h0l-6.58,8.47Z"/><path class="c" d="M87.32,37.87,91.89,39a133.85,133.85,0,0,0-11,15.57l-4.39-.67Z"/><path class="c" d="M25.95,40.72q3.38,1.52,3.32,5.91L23.78,49a2.55,2.55,0,0,0-1.37-1.55q-1.72-.78-4.91,1.35a15.85,15.85,0,0,0-4,3.66,9.08,9.08,0,0,0-1,1.72,3.34,3.34,0,0,0,.25,3.71,2.68,2.68,0,0,0,1,.76q1.69.76,4.67-.91l-.7,4.34q-4.83,2.13-8.15.64t-3.33-5.8A12.2,12.2,0,0,1,7.3,51.85a19.48,19.48,0,0,1,2.29-3.78,22.16,22.16,0,0,1,7.26-6.24Q22.08,39,25.95,40.72Z"/><path class="c" d="M13.45,65.13a231.27,231.27,0,0,0,18.31-20L42.4,47.88a143,143,0,0,0-12,22.63L22.77,69l2.32-3.85-2.37-.56-2,2.56ZM27.58,61l7-11.61h0L25.84,60.61Z"/><path class="c" d="M43.56,50.51a33.48,33.48,0,0,1,9,2.23q4.39,2,3,5-2,4.38-9.49,6.33-.1,1.44.28,9.47-2.38.8-7.14,2.3l.57-10.53h0l0,0Q37,69.2,35,72.64l-5.79-.88q.39-.69,2.66-4Zm1.79,7q-.79,1-1.51,2l-1.45,2A12.84,12.84,0,0,0,45.31,61,6.67,6.67,0,0,0,48,59.6a1.24,1.24,0,0,0,.41-.48q.32-.71-.62-1.14A8.14,8.14,0,0,0,45.35,57.49Z"/><path class="c" d="M40,77.06A231,231,0,0,0,58.3,57l10.63,2.79a143.07,143.07,0,0,0-12,22.63l-7.61-1.51,2.32-3.85-2.37-.56-2,2.56Zm14.13-4.11,7-11.61h0L52.38,72.54Z"/><path class="c" d="M54.37,83.25A145.26,145.26,0,0,0,71.25,63.62l8.34,2.23L73.11,77.28l8-9.65,8.06,2.06a169.62,169.62,0,0,0-9.93,18.53l-1.51,3.35-7.16-1.81L78.15,76,66.8,89.89,63,88.77,74.15,69.7,61.55,85.38Z"/><path class="c" d="M90.83,71.92q1.11.3,4.3.88a37.58,37.58,0,0,1,4.31,1c.4.15.78.31,1.15.48q4.29,1.93,2.89,5-1.94,4.32-9.22,6.25,3.45,1.28,3,3.63a4.94,4.94,0,0,1-.33,1A8.07,8.07,0,0,1,92.38,94a19.49,19.49,0,0,1-5.94,1.39,16.06,16.06,0,0,1-8-1.5q-.65-.29-1.29-.62Q81.37,87.21,88,76.65,89.84,73.66,90.83,71.92ZM88.19,87q-.82,1.12-2.06,3.1,5.22.66,6-1.13.29-.65-.85-1.16A13.78,13.78,0,0,0,88.19,87Zm5.71-7.91q-.74,1-1.45,1.93L91,83a9.88,9.88,0,0,0,4.9-1.86,1.71,1.71,0,0,0,.54-.58q.25-.55-.6-.93A8.05,8.05,0,0,0,93.9,79.08Z"/><path class="c" d="M88.85,99a230.9,230.9,0,0,0,18.31-20l10.63,2.79a143,143,0,0,0-12,22.63l-7.61-1.51,2.32-3.85-2.37-.56-2,2.55ZM103,94.91l7-11.61h0L101.24,94.5Z"/><path class="c" d="M111.62,102.37a3.43,3.43,0,0,1,1.87,1.23,1.88,1.88,0,0,1,.31,2.09,3.82,3.82,0,0,1-2.82,2,6,6,0,0,1-3.23,0,3.71,3.71,0,0,1-1.9-1.17,1.88,1.88,0,0,1-.28-2.08,4,4,0,0,1,2.77-2.08A5.87,5.87,0,0,1,111.62,102.37Zm12.77-18.58L130.67,88q-4.88,3.63-7.37,5.79a70.51,70.51,0,0,0-6.7,6.72l-4.43-2.23Z"/></svg>