<svg xmlns="http://www.w3.org/2000/svg" viewBox="0 0 141.73 141.73"><defs><style>.a{fill:#29abe2;}.b{fill:#f7931e;stroke:#f7931e;stroke-miterlimit:10;}.c{fill:#006847;}</style></defs><title>PopArt-05</title><path class="a" d="M115.67,104.41c-.07-.12-6.56-12.34-2.68-17.62a10.84,10.84,0,0,1,1.51-1.65c5.71-5.1,16.32-4.39,16.43-4.38l6.82.52-6-4c-5.55-3.64-11.58-9.07-11.64-11.5,0-.37.22-1.82,3.64-4.88a78.6,78.6,0,0,1,10.94-7.7L140.27,50,133,49.58a67.62,67.62,0,0,1-10-1.42c-4.56-1-7.76-2.36-9.24-3.87-1.83-1.87-1.29-5.25-.52-7.77.94-3,5.37-12.62,5.37-12.62s-19.47,8.6-23.1,6.25c-2.74-1.77-4.35-5.38-5.22-8.09a30.88,30.88,0,0,1-1.25-5.82L88.42,9,85,14.88A38.65,38.65,0,0,1,78.36,23c-2.81,2.51-5.45,3.8-7.85,3.83-6.45.08-14.93-8.64-15-8.72L52,14.47l-.13,4.33c0,.11-.39,10.91-5.85,15.79a9.58,9.58,0,0,1-1,.77c-6.44,4.39-19.1-.88-19.23-.93l-4.5-1.91,2,4.12a50.47,50.47,0,0,1,2.51,6.56c1.33,4.44,1.53,7.74.56,9.54a6.75,6.75,0,0,1-1.47,1.8C19.82,59.07,7.8,60.39,7.68,60.4L2.12,61l5.38,3C11.25,66,19.07,71.52,19.26,75.3c0,1-.5,3.25-4.71,7a56.8,56.8,0,0,1-8.1,5.86L.67,91.53l7.49.29c.11,0,10.61.48,15.32,5.67s-1.48,14.86-1.55,15l-5.36,8,8.63-5a47.13,47.13,0,0,1,8.27-3.68c4-1.32,7.22-1.63,9.25-.9C46.89,112.31,49.39,121,50,125l.94,6.7L54,126.26a33.46,33.46,0,0,1,5.87-7.18c2.72-2.43,5.34-3.68,7.78-3.69s5.79,1.31,10.05,3.84a65.37,65.37,0,0,1,6.08,4.08l3.63,2.82-.29-4c0-.1-.66-10.32,4.52-15a8.57,8.57,0,0,1,2.13-1.4c7.69-3.54,19.36.89,19.48.94l4.63,1.81Z"/><path class="b" d="M21.93,124.06A456.78,456.78,0,0,0,20.52,75.9L34.34,61.7C36.72,72,41,83.93,47.52,97.92L37.34,110.28l-2-7.59L32,106.42l.78,5.88Zm11.35-29.2L28,74.57l0,0,3,22.89Z"/><path class="b" d="M40.58,60.3a78.32,78.32,0,0,1,11.71-11c4.32-3.06,7-3.23,8.21-.48,1.73,4,.73,10.17-3.13,18.57,1,.9,4.57,3.41,10.95,7.65-1.1,3-2.8,7.49-5.16,13.61L51.87,78.09l0,0-.07,0c.87,5.17,1.84,10,2.92,14.36l-7.74,8.89c-.21-.9-.67-3.74-1.36-8.42Zm9,2.89c.11,1.29.26,2.56.44,3.82l.55,3.83A32.06,32.06,0,0,0,53.17,66a14.37,14.37,0,0,0,1.38-5,2,2,0,0,0-.07-1q-.41-1-1.85,0A19.34,19.34,0,0,0,49.57,63.18Z"/><path class="b" d="M63.82,44.55l7.88-6.68A268.64,268.64,0,0,0,77.5,76.6l-7.81,8Z"/><path class="b" d="M75.73,37.46q1.54-1.07,5.63-4.4,3.53-2.8,5.74-4.22.88-.51,1.72-1c4.36-2.28,7-2,8,.83,1.46,4.1.14,9.78-4.07,17.13Q98,42.67,100,45.48a6.46,6.46,0,0,1,.67,1.39c.89,2.57.52,5.89-1.14,10a42.93,42.93,0,0,1-5.59,9.67A34.2,34.2,0,0,1,82.4,76.21q-1.12.59-2.25,1.13c-.63-8.61-1.76-19.41-3.33-32C76.41,41.92,76,39.3,75.73,37.46ZM85.94,40.2q.08,1.81.22,3.61l.27,3.66a19.81,19.81,0,0,0,3.77-7.95,2.61,2.61,0,0,0,0-1.2q-.26-.81-1.59-.12A16.29,16.29,0,0,0,85.94,40.2Zm1.23,15c.11,1.49.35,3.48.73,6,4.6-4.22,6.57-7.29,6-9.21q-.33-1-2.19-.06A28,28,0,0,0,87.17,55.19Z"/><path class="b" d="M99.05,66.86a399,399,0,0,0,5.49-43.7l15.13-8.4c.72,10.34,3,22.88,7.18,38.1l-11.57,7.44-.76-7.59-3.64,2.16-.12,5.58Zm14.68-22-2-20.37-.05,0-.55,21.9Z"/><path class="c" d="M20.17,122.1a443.94,443.94,0,0,0-1.63-47.47L32.28,60.35C34.7,70.45,39,82.15,45.59,95.81L35.48,108.19l-2-7.44-3.27,3.75.81,5.78Zm11.21-29L26,73.17l0,0L29,95.73Z"/><path class="c" d="M38.5,58.85a79.4,79.4,0,0,1,11.64-11c4.3-3.09,7-3.31,8.19-.62,1.74,3.94.77,10-3,18.36,1,.87,4.57,3.27,10.94,7.33-1.08,3-2.76,7.43-5.08,13.5L49.85,76.17l0,0-.07,0c.89,5.07,1.88,9.78,3,14.08L45,99.25c-.21-.88-.68-3.67-1.39-8.27Zm9,2.68q.18,1.9.46,3.75L48.51,69a32.07,32.07,0,0,0,2.59-4.79,14.17,14.17,0,0,0,1.35-4.91,1.88,1.88,0,0,0-.08-1q-.42-1-1.84,0A19.53,19.53,0,0,0,47.49,61.53Z"/><path class="c" d="M61.56,42.95l7.83-6.72a259.83,259.83,0,0,0,6,38L67.6,82.31Z"/><path class="c" d="M73.4,35.74q1.53-1.08,5.59-4.42,3.5-2.82,5.69-4.26.87-.52,1.71-1c4.32-2.32,7-2.11,8,.68,1.47,4,.19,9.62-4,16.93q5.22-3.23,7.18-.5a6.2,6.2,0,0,1,.67,1.35c.9,2.51.55,5.78-1.08,9.85A42.84,42.84,0,0,1,91.63,64a34.61,34.61,0,0,1-11.38,9.73q-1.11.61-2.24,1.16c-.67-8.45-1.85-19.05-3.49-31.42C74.1,40.11,73.73,37.55,73.4,35.74Zm10.19,2.52q.09,1.78.24,3.55l.29,3.6a19.68,19.68,0,0,0,3.71-7.89,2.53,2.53,0,0,0,0-1.18q-.27-.79-1.58-.09A16.43,16.43,0,0,0,83.58,38.26ZM84.88,53c.12,1.46.37,3.41.75,5.87,4.56-4.24,6.5-7.29,5.88-9.16q-.34-1-2.18,0A28.31,28.31,0,0,0,84.88,53Z"/><path class="c" d="M96.76,64.23a389.36,389.36,0,0,0,5.2-43l15-8.51c.78,10.15,3.15,22.43,7.34,37.3l-11.44,7.52-.8-7.44-3.6,2.19-.09,5.48Zm14.47-21.87-2.11-20-.05,0-.42,21.53Z"/></svg>