<svg xmlns="http://www.w3.org/2000/svg" viewBox="0 0 141.73 141.73"><defs><style>.a{fill:#f7931e;}.b{stroke:#000;stroke-miterlimit:10;}.c{fill:#29abe2;}</style></defs><title>PopArt-05</title><path class="a" d="M65.86,122.59c0-.13-3.89-13-9.83-13.83a9.36,9.36,0,0,0-2-.07c-7,.51-13.32,8.37-13.39,8.45l-4,5.1,1.27-6.9c1.17-6.33,1.46-14.22-.09-15.92-.24-.26-1.34-1.08-5.53-.78A68.33,68.33,0,0,0,20.16,101l-5.72,1.72,4.39-5.35a65.7,65.7,0,0,0,5.44-7.89c2.25-3.87,3.42-7,3.38-9.06C27.59,77.9,25,76,22.88,74.81a27.91,27.91,0,0,0-7.55-2.67L11.17,70l4.34-2.11c5.57-1.55,13.76-5.59,14.55-9.72.6-3.11-.74-6.68-2-9.13a30.19,30.19,0,0,0-3-4.82l-4.32-5.36,6,1.6a33.45,33.45,0,0,0,9.57.9c3.44-.25,6-1.21,7.53-2.86C48.08,34,47.79,22.21,47.79,22.1l-.15-4.91L50.56,20c.07.07,7.4,7.14,14.09,6.66a8.3,8.3,0,0,0,1.13-.16c7-1.5,11.65-13.89,11.7-14l1.63-4.43,1.43,4.18a50.62,50.62,0,0,0,2.7,6.2c2.06,3.95,4.1,6.32,5.9,6.87a5.84,5.84,0,0,0,2.12.2c6.2-.45,14.76-7.93,14.84-8l3.95-3.47-1.5,5.75c-1,4-2.45,13.2-.1,15.9.62.72,2.45,1.86,7.61,1.48a49.34,49.34,0,0,0,9-1.65l5.9-1.74-4.61,5.41c-.07.08-6.48,7.71-6.09,14.52.4,7,10.69,9.06,10.8,9.08l8.65,1.68-8.82,2.59a41.73,41.73,0,0,0-7.71,3.26c-3.44,1.9-5.69,3.92-6.51,5.83-1.68,3.91,2.42,11.56,4.67,14.65L125.19,96l-5.56-1.51a29,29,0,0,0-8.47-.79c-3.34.24-5.83,1.22-7.4,2.91s-2.84,4.92-3.92,9.6a67.13,67.13,0,0,0-1.21,7l-.47,4.44-2.4-2.89c-.06-.07-6.35-7.47-12.7-7a7.46,7.46,0,0,0-2.28.53c-7.24,3-11.81,14.08-11.85,14.19L67.15,127Z"/><path class="b" d="M3.17,68.2l7.15-6.66q.8,1.53,2.46,4.22,3.94,6.44,7.36,11.06a29.65,29.65,0,0,0,3.46,4.06l-8.1-20.43L22.7,54A276.81,276.81,0,0,0,36.43,90.8l-6.19,6.65q-.11-.07-1.63-1.28l-6.75-5.5a24.73,24.73,0,0,1-2-1.74q2.43,6.19,5.08,11.8l-6.16,6.9Z"/><path class="b" d="M39.24,43.41q5.29-2.54,10.32,2.3a21,21,0,0,1,4.37,6.15A34.27,34.27,0,0,1,56.55,60a40,40,0,0,1-.18,16q-2.07,9.87-8.26,12.85-5.34,2.57-10.42-2.26a20.28,20.28,0,0,1-4.23-6,33.63,33.63,0,0,1-2.61-8.23,40.45,40.45,0,0,1,.1-16Q33,46.41,39.24,43.41Zm4.17,13.27Q40.66,58,40,63.87a27,27,0,0,0,.15,8.49,15.09,15.09,0,0,0,1.11,3.47,5.93,5.93,0,0,0,2.61,2.87,4.26,4.26,0,0,0,3.89-.09q2.79-1.34,3.62-5.37a16.65,16.65,0,0,0-.08-6.8,20.72,20.72,0,0,0-3.16-7.6Q45.81,55.53,43.41,56.68Z"/><path class="b" d="M68.86,32.16q5.57-1.85,9.95,3.6a21,21,0,0,1,3.56,6.66,34.28,34.28,0,0,1,1.56,8.38,40.05,40.05,0,0,1-2.2,15.83q-3.31,9.53-9.82,11.69-5.62,1.87-10.05-3.56a20.3,20.3,0,0,1-3.43-6.47,33.65,33.65,0,0,1-1.54-8.5A40.48,40.48,0,0,1,59,43.93Q62.29,34.35,68.86,32.16Zm2.45,13.7q-2.89,1-4.31,6.7A27,27,0,0,0,66.08,61a15.06,15.06,0,0,0,.67,3.58A5.94,5.94,0,0,0,69,67.76a4.26,4.26,0,0,0,3.87.41q2.94-1,4.27-4.87a16.67,16.67,0,0,0,.79-6.76,20.72,20.72,0,0,0-2.17-7.94Q73.83,45,71.31,45.86Z"/><path class="b" d="M100.8,25.17q5.79-1,9.26,5.12a21,21,0,0,1,2.46,7.14,34.23,34.23,0,0,1,.22,8.52,40,40,0,0,1-4.67,15.29q-4.77,8.89-11.54,10-5.85,1-9.37-5.1a20.29,20.29,0,0,1-2.37-6.92,33.64,33.64,0,0,1-.18-8.64,40.45,40.45,0,0,1,4.61-15.33Q94,26.29,100.8,25.17Zm.27,13.91q-3,.49-5.31,5.94a27.06,27.06,0,0,0-2.25,8.19,15.09,15.09,0,0,0,.09,3.64,5.94,5.94,0,0,0,1.7,3.49,4.26,4.26,0,0,0,3.76,1q3.06-.5,5-4.14a16.67,16.67,0,0,0,1.84-6.55,20.72,20.72,0,0,0-.9-8.18Q103.69,38.65,101.06,39.08Z"/><path class="b" d="M119.22,58.15a5.32,5.32,0,0,1,3.44.52,2.92,2.92,0,0,1,1.8,2.76q0,2.55-2.67,4.69a9.29,9.29,0,0,1-4.57,2,5.75,5.75,0,0,1-3.44-.41A2.93,2.93,0,0,1,112,65a6.16,6.16,0,0,1,2.55-4.75A9.11,9.11,0,0,1,119.22,58.15Zm5.9-34.6,11.59,1.82q-4.51,8.32-6.62,13A109.7,109.7,0,0,0,125,52.26l-7.7-.25Z"/><path class="c" d="M1.14,65.86,8.33,59.2q.8,1.53,2.45,4.23,3.94,6.44,7.35,11.06a29.61,29.61,0,0,0,3.46,4.07L13.52,58.11l7.22-6.5A276.16,276.16,0,0,0,34.42,88.48l-6.21,6.66q-.11-.07-1.63-1.28l-6.75-5.51a24.48,24.48,0,0,1-2-1.75q2.42,6.2,5.07,11.81l-6.19,6.91Z"/><path class="c" d="M37.32,41.06q5.31-2.55,10.34,2.3A21,21,0,0,1,52,49.52a34.16,34.16,0,0,1,2.6,8.11,40,40,0,0,1-.21,16q-2.1,9.88-8.3,12.85Q40.76,89,35.67,84.22a20.21,20.21,0,0,1-4.22-6A33.53,33.53,0,0,1,28.85,70,40.43,40.43,0,0,1,29,54Q31.06,44.07,37.32,41.06Zm4.16,13.28q-2.75,1.32-3.44,7.2a27,27,0,0,0,.13,8.5,15.07,15.07,0,0,0,1.11,3.47,5.93,5.93,0,0,0,2.61,2.87,4.28,4.28,0,0,0,3.9-.09q2.8-1.34,3.64-5.38a16.62,16.62,0,0,0-.06-6.81,20.66,20.66,0,0,0-3.15-7.6Q43.88,53.19,41.47,54.34Z"/><path class="c" d="M67,29.83q5.59-1.86,10,3.59a21,21,0,0,1,3.56,6.66A34.14,34.14,0,0,1,82,48.46a40,40,0,0,1-2.23,15.84Q76.48,73.82,69.95,76q-5.64,1.87-10.08-3.56A20.24,20.24,0,0,1,56.44,66a33.54,33.54,0,0,1-1.54-8.5A40.41,40.41,0,0,1,57.06,41.6Q60.37,32,67,29.83Zm2.44,13.7q-2.9,1-4.33,6.7a27,27,0,0,0-.94,8.44,15.08,15.08,0,0,0,.66,3.58A5.93,5.93,0,0,0,67,65.44a4.28,4.28,0,0,0,3.88.41q3-1,4.29-4.88a16.64,16.64,0,0,0,.8-6.76,20.65,20.65,0,0,0-2.17-7.94Q71.93,42.69,69.4,43.53Z"/><path class="c" d="M99,22.82q5.81-1,9.28,5.12a20.94,20.94,0,0,1,2.46,7.14,34.19,34.19,0,0,1,.22,8.52,40,40,0,0,1-4.69,15.29q-4.79,8.89-11.58,10-5.86,1-9.39-5.1a20.22,20.22,0,0,1-2.37-6.93,33.5,33.5,0,0,1-.18-8.64,40.42,40.42,0,0,1,4.63-15.33Q92.15,23.95,99,22.82Zm.26,13.91q-3,.49-5.33,5.94a27,27,0,0,0-2.26,8.19,15,15,0,0,0,.09,3.64A5.92,5.92,0,0,0,93.46,58a4.28,4.28,0,0,0,3.77,1q3.07-.5,5-4.14a16.65,16.65,0,0,0,1.85-6.55,20.65,20.65,0,0,0-.89-8.18Q101.88,36.3,99.25,36.73Z"/><path class="c" d="M117.48,55.8a5.35,5.35,0,0,1,3.45.52,2.92,2.92,0,0,1,1.81,2.76q0,2.56-2.67,4.69a9.34,9.34,0,0,1-4.59,2,5.79,5.79,0,0,1-3.45-.41,2.93,2.93,0,0,1-1.75-2.76,6.15,6.15,0,0,1,2.56-4.75A9.13,9.13,0,0,1,117.48,55.8Zm5.92-34.6L135,23q-4.52,8.32-6.64,13a109.63,109.63,0,0,0-5.08,13.88l-7.72-.25Z"/></svg>