<svg xmlns="http://www.w3.org/2000/svg" xmlns:xlink="http://www.w3.org/1999/xlink" viewBox="0 0 1450 800"><defs><style>.a,.b,.l,.m{fill:none;}.b{stroke:#b3b3b3;stroke-width:9.92px;}.b,.l,.m{stroke-miterlimit:10;}.c{clip-path:url(#a);}.d{fill:#29abe2;}.e{clip-path:url(#b);}.f{fill:#006847;}.g{fill:#fff;}.h{fill:#ce1126;}.i{clip-path:url(#c);}.j{fill:#0660a9;}.k{fill:#ed1c23;}.l,.m{stroke:#f7931e;stroke-linecap:round;stroke-width:15.88px;}.m{stroke-dasharray:20.01 40.01;}</style><clipPath id="a"><rect class="a" width="1450" height="800"/></clipPath><clipPath id="b"><path class="b" d="M1277.45,447.7c-3.61,16.78,17.06,66.63,9.2,90.38-3.53,10.66-25.87,7.73-42.26,27.07-21.8,25.71-31.78,51.55-105.06,17.45-85.52-39.79-114-124-115.32-135.2s12.46-19.81,5-32c-.5-.82-1.09-1.69-1.74-2.59-24.82,6.31-49.84,11.39-58.38,9.69-4.74-.95-17.83-16.61-35.85-29-8.6-5.92-18-5.62-27.25-11.13-5.31-3.18-8.45-7.9-13.46-11.15C875,360,862.92,350.41,854.5,352.46c-11.4,2.77-22.86,4.07-31.89,13.61-3.81,4,4.4,14.91,1.37,20.18s-2,7.72-9,8.74c-6.65,1-30.06.4-34.74-5.84-1.82-2.44-12.15-9.18-19.52-15.91-4-3.7-3.78-7.37-8.73-10.39-9.11-5.55-20.1-6.34-27.61-8.68-8.84-2.76-13.63-8.85-21.21-8.94-19.44-.23-48.86,13.06-43.83,19.35,2.66,3.33,8.89,8.54-5.71,11.22-19.9,3.66-54.89,21.67-74.56,20.31-22.39-1.55-103.44-7.35-106.73-6-7.37,3.1-37.53,10.6-46.25,15.48a36.32,36.32,0,0,0-4,2.7c29.09,31.39,56.63,75.87,87,88.13,37,15,45.24,40.21,17.21,44.22s63.68,18.93,83.81,30.67c42.54,24.79-13.57,39.82,75.23,57.92,42.41,8.64,23.54,40.07,37,12.85,8.63-17.42-13.28-35.27-33.5-32.17s-48.51-58.7-70.86-65.85S544.12,479.38,519,472c-14.67-4.3-35.15-57.25-27.62-57.6,39.92-1.83,40.69,9,79.2,50.07s47.88,27.05,99.45,60.08c13.39,8.57,24.54,25,37.53,32.5,32.22,18.64,64.68,25.78,89.67,38.91,28.39,14.92,49.92,26.75,59.56,36.53,21.56,21.85.4,45.51,28.3,61.1,6.35,3.55,21.61,6.27,41.93,11.53,12.15,3.15,26.09,9.9,41.07,10.79,14.5.86,30-9,45.64-8.46,8.45.28,12.71,6.78,21.16,7,51.47,1.11,104.91-5.69,125.27-7.07,46.93-3.19,57-36,81.55-49.16s114.71,16.17,114.71,16.17L1458.36,698s81.64-378-15.29-358.88c-18.16,3.58-56.46,28-91.67,51.21C1313.58,415.18,1279.32,439,1277.45,447.7Z"/></clipPath><clipPath id="c"><path class="b" d="M422.09,408.34a36.32,36.32,0,0,1,4-2.7c8.73-4.88,38.88-12.38,46.25-15.48,3.29-1.38,84.34,4.42,106.73,6,19.67,1.36,54.66-16.64,74.56-20.31,14.6-2.69,8.37-7.89,5.71-11.22-5-6.29,24.39-19.58,43.83-19.35,7.58.09,12.37,6.17,21.21,8.94,7.5,2.34,18.49,3.13,27.61,8.68,4.95,3,4.68,6.69,8.73,10.39,7.37,6.74,17.7,13.48,19.52,15.91C784.9,395.4,808.32,396,815,395c7-1,6-3.46,9-8.74s-5.18-16.16-1.37-20.18c9-9.55,20.49-10.84,31.89-13.61,8.42-2,20.48,7.55,37.8,18.78,5,3.25,8.15,8,13.46,11.15,9.21,5.52,18.64,5.21,27.25,11.13,18,12.4,31.11,28.06,35.85,29,8.54,1.7,33.56-3.38,58.38-9.69-9-12.6-30.88-33.55-32.05-53.15-.76-12.76,16.69-31.71,29.55-54.53,8.32-14.76,13.26-34.15,18-41.77s23.16-13.47,45.12-19.46c4.87-1.33.85-5.67,4.59-10.43s24.16,2.64,30.94.61c7.35-2.2,20.12-7.58,25-13.73,2.37-3-3.53-7.79-.53-9.34,4.57-2.36,15.05,2.6,18.78,3.36,2.37.48,3.83-2.92,3.78-5.34-20.83-9.37-23.63-31.7-1-47.74,15-10.63,30.25-22.73,45-27.68,12.16-4.09,24-1.59,35-1.89,21-.56,11.75-34.2,47.93-24.17a90.76,90.76,0,0,1,12.39,4.39c3.76,1.66,9.32-2.79,12.45-.81,18.78,11.89,9.78,29.54,37.66,48.63l123.42,49.74L1472.85,90.45,1360.46,75.79s-46.1-16.41-49.25-68.94c-1-16,8.24-36.07,12.73-56.32,2.55-11.51-1.07-23.1,1.52-34,1.82-7.63,8.1-10.69,10.27-17.39,2.4-7.41.19-12.5,1.8-18.74,3.18-12.36,12.46-17.57,15.3-23.15l-37.68-93.54L3.53-418.1,89.82-151.16c.41,20.64,63.12,122.5,69.76,141.9C168.94,18,163,52,173.35,131.55c3.56,27.42,12.3,61.33,31.41,94.58,16.11,28,41.42,55.62,58.88,78.33,21.9,28.49,41.36,49.39,49.62,54.17,22.67,13.1,52.84,2.8,89.41,31.4A169.48,169.48,0,0,1,422.09,408.34Z"/></clipPath></defs><title>background</title><polyline class="a" points="-35 58 104 38 134 178 369 311 402 340"/><g class="c"><rect class="d" width="1452" height="800"/><g class="e"><rect class="f" x="360.56" y="195.09" width="344.46" height="686.82"/><rect class="g" x="705.02" y="195.09" width="344.46" height="686.82"/><rect class="h" x="1049.48" y="195.09" width="451.52" height="686.82"/></g><path class="b" d="M1277.45,447.7c-3.61,16.78,17.06,66.63,9.2,90.38-3.53,10.66-25.87,7.73-42.26,27.07-21.8,25.71-31.78,51.55-105.06,17.45-85.52-39.79-114-124-115.32-135.2s12.46-19.81,5-32c-.5-.82-1.09-1.69-1.74-2.59-24.82,6.31-49.84,11.39-58.38,9.69-4.74-.95-17.83-16.61-35.85-29-8.6-5.92-18-5.62-27.25-11.13-5.31-3.18-8.45-7.9-13.46-11.15C875,360,862.92,350.41,854.5,352.46c-11.4,2.77-22.86,4.07-31.89,13.61-3.81,4,4.4,14.91,1.37,20.18s-2,7.72-9,8.74c-6.65,1-30.06.4-34.74-5.84-1.82-2.44-12.15-9.18-19.52-15.91-4-3.7-3.78-7.37-8.73-10.39-9.11-5.55-20.1-6.34-27.61-8.68-8.84-2.76-13.63-8.85-21.21-8.94-19.44-.23-48.86,13.06-43.83,19.35,2.66,3.33,8.89,8.54-5.71,11.22-19.9,3.66-54.89,21.67-74.56,20.31-22.39-1.55-103.44-7.35-106.73-6-7.37,3.1-37.53,10.6-46.25,15.48a36.32,36.32,0,0,0-4,2.7c29.09,31.39,56.63,75.87,87,88.13,37,15,45.24,40.21,17.21,44.22s63.68,18.93,83.81,30.67c42.54,24.79-13.57,39.82,75.23,57.92,42.41,8.64,23.54,40.07,37,12.85,8.63-17.42-13.28-35.27-33.5-32.17s-48.51-58.7-70.86-65.85S544.12,479.38,519,472c-14.67-4.3-35.15-57.25-27.62-57.6,39.92-1.83,40.69,9,79.2,50.07s47.88,27.05,99.45,60.08c13.39,8.57,24.54,25,37.53,32.5,32.22,18.64,64.68,25.78,89.67,38.91,28.39,14.92,49.92,26.75,59.56,36.53,21.56,21.85.4,45.51,28.3,61.1,6.35,3.55,21.61,6.27,41.93,11.53,12.15,3.15,26.09,9.9,41.07,10.79,14.5.86,30-9,45.64-8.46,8.45.28,12.71,6.78,21.16,7,51.47,1.11,104.91-5.69,125.27-7.07,46.93-3.19,57-36,81.55-49.16s114.71,16.17,114.71,16.17L1458.36,698s81.64-378-15.29-358.88c-18.16,3.58-56.46,28-91.67,51.21C1313.58,415.18,1279.32,439,1277.45,447.7Z"/><g class="i"><rect class="j" x="64.08" y="-113.32" width="640.4" height="315.31"/><rect class="k" x="704.59" y="0.16" width="725.42" height="40.2"/><rect class="g" x="704.61" y="40.36" width="725.42" height="40.2"/><rect class="k" x="704.63" y="80.54" width="793.36" height="40.2"/><rect class="g" x="704.66" y="120.73" width="793.36" height="40.2"/><rect class="k" x="705.02" y="160.91" width="860.94" height="40.2"/><rect class="g" x="77.98" y="201.29" width="1488.01" height="40.2"/><rect class="k" x="78.01" y="241.49" width="1488.01" height="40.2"/><rect class="g" x="64.23" y="281.35" width="1501.81" height="40.55"/><rect class="k" x="64.25" y="321.94" width="1365.94" height="40.2"/><rect class="g" x="64.27" y="362.14" width="1365.94" height="40.2"/><rect class="k" x="64.3" y="402.34" width="1365.94" height="40.2"/><rect class="g" x="64.32" y="442.53" width="1365.94" height="40.2"/><rect class="k" x="64.34" y="482.73" width="1365.94" height="40.2"/><rect class="g" x="60.42" y="465.94" width="1365.94" height="40.2" transform="translate(3.27 -4.97) rotate(0.38)"/><rect class="k" x="60.15" y="506.14" width="1365.94" height="40.2" transform="translate(3.54 -4.96) rotate(0.38)"/><rect class="g" x="59.89" y="546.33" width="1365.94" height="40.2" transform="translate(3.81 -4.96) rotate(0.38)"/></g><path class="b" d="M422.09,408.34a36.32,36.32,0,0,1,4-2.7c8.73-4.88,38.88-12.38,46.25-15.48,3.29-1.38,84.34,4.42,106.73,6,19.67,1.36,54.66-16.64,74.56-20.31,14.6-2.69,8.37-7.89,5.71-11.22-5-6.29,24.39-19.58,43.83-19.35,7.58.09,12.37,6.17,21.21,8.94,7.5,2.34,18.49,3.13,27.61,8.68,4.95,3,4.68,6.69,8.73,10.39,7.37,6.74,17.7,13.48,19.52,15.91C784.9,395.4,808.32,396,815,395c7-1,6-3.46,9-8.74s-5.18-16.16-1.37-20.18c9-9.55,20.49-10.84,31.89-13.61,8.42-2,20.48,7.55,37.8,18.78,5,3.25,8.15,8,13.46,11.15,9.21,5.52,18.64,5.21,27.25,11.13,18,12.4,31.11,28.06,35.85,29,8.54,1.7,33.56-3.38,58.38-9.69-9-12.6-30.88-33.55-32.05-53.15-.76-12.76,16.69-31.71,29.55-54.53,8.32-14.76,13.26-34.15,18-41.77s23.16-13.47,45.12-19.46c4.87-1.33.85-5.67,4.59-10.43s24.16,2.64,30.94.61c7.35-2.2,20.12-7.58,25-13.73,2.37-3-3.53-7.79-.53-9.34,4.57-2.36,15.05,2.6,18.78,3.36,2.37.48,3.83-2.92,3.78-5.34-20.83-9.37-23.63-31.7-1-47.74,15-10.63,30.25-22.73,45-27.68,12.16-4.09,24-1.59,35-1.89,21-.56,11.75-34.2,47.93-24.17a90.76,90.76,0,0,1,12.39,4.39c3.76,1.66,9.32-2.79,12.45-.81,18.78,11.89,9.78,29.54,37.66,48.63l123.42,49.74L1472.85,90.45,1360.46,75.79s-46.1-16.41-49.25-68.94c-1-16,8.24-36.07,12.73-56.32,2.55-11.51-1.07-23.1,1.52-34,1.82-7.63,8.1-10.69,10.27-17.39,2.4-7.41.19-12.5,1.8-18.74,3.18-12.36,12.46-17.57,15.3-23.15l-37.68-93.54L3.53-418.1,89.82-151.16c.41,20.64,63.12,122.5,69.76,141.9C168.94,18,163,52,173.35,131.55c3.56,27.42,12.3,61.33,31.41,94.58,16.11,28,41.42,55.62,58.88,78.33,21.9,28.49,41.36,49.39,49.62,54.17,22.67,13.1,52.84,2.8,89.41,31.4A169.48,169.48,0,0,1,422.09,408.34Z"/><path class="l" d="M359.89,452.76q4.5-2.42,8.67-4.84"/><path class="m" d="M401.73,425.59c12.59-9.71,20.65-17.29,25.4-19.95,8.73-4.88,38.88-12.38,46.25-15.48,3.29-1.38,84.34,4.42,106.73,6,19.67,1.36,54.66-16.64,74.56-20.31,14.6-2.69,8.37-7.89,5.71-11.22-5-6.29,24.39-19.58,43.83-19.35,7.58.09,12.37,6.17,21.21,8.94,7.5,2.34,18.49,3.13,27.61,8.68,4.95,3,4.68,6.69,8.73,10.39,7.37,6.74,17.7,13.48,19.52,15.91C786,395.4,809.37,396,816,395c7-1,6-3.46,9-8.74s-5.18-16.16-1.37-20.18c9-9.55,20.49-10.84,31.89-13.61,8.42-2,20.48,7.55,37.8,18.78,5,3.25,8.15,8,13.46,11.15,9.21,5.52,18.64,5.21,27.25,11.13,18,12.4,31.11,28.06,35.85,29,12.25,2.44,58.45-9.08,89.27-18.16"/><path class="l" d="M1078.3,398.39c4.87-1.65,8.17-2.94,9.22-3.63"/></g></svg>