<svg xmlns="http://www.w3.org/2000/svg" xmlns:xlink="http://www.w3.org/1999/xlink" viewBox="0 0 272.84 304.43"><defs><style>.a,.j,.k,.l,.n,.o,.p,.r,.s{fill:none;}.b{isolation:isolate;}.c{clip-path:url(#a);}.d{fill:#0660a9;}.e{fill:#ed1c23;}.f,.i{fill:#fff;}.g{opacity:0.1;}.h{mix-blend-mode:multiply;fill:url(#b);}.i,.j,.k,.o,.r{stroke:#888;}.i,.r{stroke-linecap:round;}.i,.j,.k,.l,.n,.o,.p,.r,.s,.u{stroke-miterlimit:10;}.i{stroke-width:1.7px;}.j{stroke-width:11.34px;}.k,.l,.m{font-size:49px;}.k{stroke-width:19.84px;}.k,.l,.m,.q{font-family:PoplarStd, Poplar Std;}.l,.n,.p,.s,.u{stroke:#fff;}.l{stroke-width:8.5px;}.m,.q,.u{fill:#0d76bd;}.n{stroke-width:4.25px;}.o{stroke-width:20.08px;}.p{stroke-width:11.48px;}.q{font-size:65.56px;}.r{stroke-width:9.92px;}.s{font-size:58px;stroke-width:2.83px;font-family:SignPainter-HouseScriptSemibold, SignPainter;font-weight:700;}.t{letter-spacing:-0.01em;}</style><clipPath id="a"><path class="a" d="M201.07,243.91l-60.3,47.55a7,7,0,0,1-8.7,0l-60.3-47.55a120.7,120.7,0,0,1-46-94.77V31A10.43,10.43,0,0,1,36.24,20.62H236.6A10.43,10.43,0,0,1,247,31V149.13A120.7,120.7,0,0,1,201.07,243.91Z"/></clipPath><linearGradient id="b" x1="133.72" y1="108.49" x2="253.37" y2="293.68" gradientUnits="userSpaceOnUse"><stop offset="0" stop-opacity="0"/><stop offset="0.41" stop-opacity="0.65"/><stop offset="1" stop-opacity="0.95"/><stop offset="1" stop-opacity="0.95"/></linearGradient></defs><title>game-logo-03</title><g class="b"><g class="c"><rect class="d" x="-40.34" y="-28.75" width="176.76" height="171.37"/><rect class="e" x="136.42" y="20.62" width="110.61" height="17.43"/><rect class="f" x="136.42" y="38.05" width="110.61" height="17.43"/><rect class="e" x="136.42" y="55.48" width="110.61" height="17.43"/><rect class="f" x="136.42" y="72.91" width="110.61" height="17.43"/><rect class="e" x="136.42" y="90.33" width="110.61" height="17.43"/><rect class="f" x="136.42" y="107.76" width="110.61" height="17.43"/><rect class="e" x="136.42" y="125.19" width="110.61" height="17.43"/><rect class="f" x="25.81" y="142.62" width="221.21" height="17.43"/><rect class="e" x="25.81" y="160.05" width="221.21" height="17.43"/><rect class="f" x="25.81" y="177.48" width="221.21" height="17.43"/><rect class="e" x="25.81" y="194.91" width="221.21" height="17.43"/><rect class="f" x="25.81" y="212.34" width="221.21" height="17.43"/><rect class="e" x="25.81" y="229.76" width="221.21" height="17.43"/><rect class="f" x="25.81" y="247.19" width="221.21" height="17.43"/><rect class="e" x="25.81" y="264.62" width="221.21" height="17.43"/><rect class="f" x="25.81" y="282.05" width="221.21" height="17.43"/></g><g class="g"><path class="h" d="M202.13,243.07,139,292.82a4.24,4.24,0,0,1-5.25,0l-62-48.91a120.68,120.68,0,0,1-46-93.73,1.68,1.68,0,0,1,.93-1.51L244.62,39.61A1.66,1.66,0,0,1,247,41.1V150.48A117.91,117.91,0,0,1,202.13,243.07Z"/></g><path class="i" d="M136.45,84.51l2.9,5.87,0,0,6.48.94a0,0,0,0,1,0,0L141.17,96a0,0,0,0,0,0,0l1.11,6.45a0,0,0,0,1,0,0l-5.8-3h0l-5.8,3a0,0,0,0,1,0,0L131.68,96a0,0,0,0,0,0,0L127,91.39a0,0,0,0,1,0,0l6.48-.94,0,0,2.9-5.87A0,0,0,0,1,136.45,84.51Z"/><path class="j" d="M201.07,243.91l-60.3,47.55a7,7,0,0,1-8.7,0l-60.3-47.55a120.7,120.7,0,0,1-46-94.77V31A10.43,10.43,0,0,1,36.24,20.62H236.6A10.43,10.43,0,0,1,247,31V149.13A120.7,120.7,0,0,1,201.07,243.91Z"/><text class="k" transform="translate(69.41 54.29) scale(1.05 1)">TRUMP</text><text class="l" transform="translate(69.41 54.29) scale(1.05 1)">TRUMP</text><text class="m" transform="translate(69.41 54.29) scale(1.05 1)">TRUMP</text><path class="i" d="M189.95,77.8l3.71,5.39h6.57a0,0,0,0,1,0,0l-4,5.2a0,0,0,0,0,0,0l2,6.23a0,0,0,0,1,0,0l-6.17-2.18h0l-5.3,3.85a0,0,0,0,1,0,0l.17-6.55v0L181.57,86a0,0,0,0,1,0-.05l6.28-1.87,0,0,2-6.23A0,0,0,0,1,189.95,77.8Z"/><path class="i" d="M163.27,80.7l3.31,5.65h0l6.53.47a0,0,0,0,1,0,0l-4.35,4.9a0,0,0,0,0,0,0l1.57,6.36a0,0,0,0,1,0,0l-6-2.62h0L158.74,99a0,0,0,0,1,0,0l.64-6.52a0,0,0,0,0,0,0l-5-4.22a0,0,0,0,1,0,0l6.4-1.41,0,0,2.47-6.07A0,0,0,0,1,163.27,80.7Z"/><path class="i" d="M109.63,80.71l2.47,6.07,0,0,6.4,1.41a0,0,0,0,1,0,0l-5,4.22a0,0,0,0,0,0,0l.64,6.52a0,0,0,0,1,0,0l-5.56-3.46h0l-6,2.62a0,0,0,0,1,0,0L104,91.81a0,0,0,0,0,0,0l-4.35-4.9a0,0,0,0,1,0,0l6.53-.47h0l3.31-5.65A0,0,0,0,1,109.63,80.71Z"/><path class="i" d="M82.95,77.81,85,84l0,0,6.28,1.87a0,0,0,0,1,0,.05L86,89.82v0l.17,6.55a0,0,0,0,1,0,0l-5.3-3.85h0l-6.17,2.18a0,0,0,0,1,0,0l2-6.23a0,0,0,0,0,0,0l-4-5.2a0,0,0,0,1,0,0h6.57L82.9,77.8A0,0,0,0,1,82.95,77.81Z"/><path class="n" d="M203.42,20.62H236.6A10.43,10.43,0,0,1,247,31V149.13a120.7,120.7,0,0,1-46,94.77l-60.3,47.55a7,7,0,0,1-8.7,0l-60.3-47.55a120.7,120.7,0,0,1-46-94.77V31A10.43,10.43,0,0,1,36.24,20.62H67.11"/><path class="o" d="M81.58,217.38c0-.72.74-.92,1.15-.92H96.41a.87.87,0,0,1,.88.79v7.54c0,.26-.07.52-.27.52H95.87c-.4,0-.47.33-.47.79,0,6.36-3.91,15.14-14.29,15.14-9.91,0-15.17-6.82-15.17-21.37V212.2c0-12.19,4.11-20.46,15.43-20.46,2.63,0,14,0,14,18.36,0,.46-.2.85-.67.85l-12.2.52a1,1,0,0,1-.94-1.11v-3.74c0-.59-.54-.72-1.08-.72s-1.08.46-1.08,1.51v18c0,2,.67,2.88,1.55,2.88s1.48-.39,1.48-2v-1c0-.2-.07-.39-.27-.39h-.34c-.13,0-.27-.13-.27-.39Z"/><path class="o" d="M120.61,191.87a.93.93,0,0,1,.88.85l9.23,46.88c.13.72-.2,1.44-.94,1.44H118.85a.87.87,0,0,1-.88-.66l-1.35-9.83A.65.65,0,0,0,116,230h-3.64a.71.71,0,0,0-.61.66l-1.28,9.64a.91.91,0,0,1-.88.72H98.43c-.61,0-.94-.46-.81-1.11l9-47.27c.07-.33.4-.79.81-.79Zm-5.93,24.72c-.13-.92-.27-1.51-.47-1.51s-.34.46-.47,1.51l-.88,6.23c-.07.33.07.66.4.66,2.16,0,2.36,0,2.29-.59Z"/><path class="o" d="M132.67,241a.64.64,0,0,1-.54-.59V192.53a.6.6,0,0,1,.54-.66h18.06a.71.71,0,0,1,.67.66l2,13c.07.46.2.66.34.66s.27-.26.27-.72l1.62-12.92a.79.79,0,0,1,.74-.72h18.74a.67.67,0,0,1,.74.72v47.8a.69.69,0,0,1-.74.66h-12.2a.7.7,0,0,1-.74-.72V219.8c0-.52-.07-.72-.2-.72s-.27.26-.47,1.31L158,240.52a.67.67,0,0,1-.74.52h-7.62c-.34,0-.61-.26-.74-.72l-3.1-18.75c-.2-1.11-.47-1.31-.67-1.31s-.34.33-.34.85v19.21c0,.46-.2.72-.67.72Z"/><path class="o" d="M178.57,192.72a.93.93,0,0,1,.88-.85h23.93a.68.68,0,0,1,.67.72v11.8a.69.69,0,0,1-.74.66H192a.45.45,0,0,0-.47.46v3.67a.5.5,0,0,0,.47.46h5.33a.45.45,0,0,1,.47.46V222a.58.58,0,0,1-.54.59h-5.46a.47.47,0,0,0-.47.52V227a.44.44,0,0,0,.4.46h11.66a.69.69,0,0,1,.74.66l-10,1.88-9.63,11h-5.24a.81.81,0,0,1-.74-.85Z"/><path class="p" d="M81.58,217.38c0-.72.74-.92,1.15-.92H96.41a.87.87,0,0,1,.88.79v7.54c0,.26-.07.52-.27.52H95.87c-.4,0-.47.33-.47.79,0,6.36-3.91,15.14-14.29,15.14-9.91,0-15.17-6.82-15.17-21.37V212.2c0-12.19,4.11-20.46,15.43-20.46,2.63,0,14,0,14,18.36,0,.46-.2.85-.67.85l-12.2.52a1,1,0,0,1-.94-1.11v-3.74c0-.59-.54-.72-1.08-.72s-1.08.46-1.08,1.51v18c0,2,.67,2.88,1.55,2.88s1.48-.39,1.48-2v-1c0-.2-.07-.39-.27-.39h-.34c-.13,0-.27-.13-.27-.39Z"/><path class="p" d="M120.61,191.87a.93.93,0,0,1,.88.85l9.23,46.88c.13.72-.2,1.44-.94,1.44H118.85a.87.87,0,0,1-.88-.66l-1.35-9.83A.65.65,0,0,0,116,230h-3.64a.71.71,0,0,0-.61.66l-1.28,9.64a.91.91,0,0,1-.88.72H98.43c-.61,0-.94-.46-.81-1.11l9-47.27c.07-.33.4-.79.81-.79Zm-5.93,24.72c-.13-.92-.27-1.51-.47-1.51s-.34.46-.47,1.51l-.88,6.23c-.07.33.07.66.4.66,2.16,0,2.36,0,2.29-.59Z"/><path class="p" d="M132.67,241a.64.64,0,0,1-.54-.59V192.53a.6.6,0,0,1,.54-.66h18.06a.71.71,0,0,1,.67.66l2,13c.07.46.2.66.34.66s.27-.26.27-.72l1.62-12.92a.79.79,0,0,1,.74-.72h18.74a.67.67,0,0,1,.74.72v47.8a.69.69,0,0,1-.74.66h-12.2a.7.7,0,0,1-.74-.72V219.8c0-.52-.07-.72-.2-.72s-.27.26-.47,1.31L158,240.52a.67.67,0,0,1-.74.52h-7.62c-.34,0-.61-.26-.74-.72l-3.1-18.75c-.2-1.11-.47-1.31-.67-1.31s-.34.33-.34.85v19.21c0,.46-.2.72-.67.72Z"/><path class="p" d="M178.57,192.72a.93.93,0,0,1,.88-.85h23.93a.68.68,0,0,1,.67.72v11.8a.69.69,0,0,1-.74.66H192a.45.45,0,0,0-.47.46v3.67a.5.5,0,0,0,.47.46h5.33a.45.45,0,0,1,.47.46V222a.58.58,0,0,1-.54.59h-5.46a.47.47,0,0,0-.47.52V227a.44.44,0,0,0,.4.46h11.66a.69.69,0,0,1,.74.66v7.52L195,241h-15.7a.81.81,0,0,1-.74-.85Z"/><text class="q" transform="translate(64.8 241.05) scale(1.03 1)">GAME</text><path class="n" d="M203.42,20.62H236.6A10.43,10.43,0,0,1,247,31V149.13a120.7,120.7,0,0,1-46,94.77l-62,48.92a4.23,4.23,0,0,1-5.24,0l-62-48.92a120.7,120.7,0,0,1-46-94.77V31A10.43,10.43,0,0,1,36.24,20.62H67.11"/><text class="q" transform="translate(64.8 241.05) scale(1.03 1)">GAME</text><path class="f" d="M80.18,192.88l1.3,2.7h0l2.91.43a0,0,0,0,1,0,0l-2.11,2.1h0l.5,3a0,0,0,0,1,0,0l-2.61-1.4h0l-2.61,1.4a0,0,0,0,1,0,0l.5-3h0L75.93,196a0,0,0,0,1,0,0l2.91-.43h0l1.3-2.7Z"/><path class="f" d="M70.21,205.31l1.3,2.7h0l2.91.43a0,0,0,0,1,0,0l-2.11,2.1h0l.5,3a0,0,0,0,1,0,0l-2.61-1.4h0l-2.61,1.4a0,0,0,0,1,0,0l.5-3h0L66,208.48a0,0,0,0,1,0,0l2.91-.43h0l1.3-2.7Z"/><path class="f" d="M71.69,228.91l1.3,2.7h0l2.91.43a0,0,0,0,1,0,0l-2.11,2.1h0l.5,3a0,0,0,0,1,0,0l-2.61-1.4h0l-2.61,1.4a0,0,0,0,1,0,0l.5-3h0l-2.11-2.1a0,0,0,0,1,0,0l2.91-.43h0l1.3-2.7Z"/><path class="f" d="M78.7,216.47l1.3,2.7h0l.81,2.56h0l-2.13,1.58h0l-2.61,1.4a0,0,0,0,1,0,0l.5-3h0l-2.11-2.1a0,0,0,0,1,0,0l2.91-.43h0l1.3-2.7Z"/><path class="f" d="M95.54,202.47l1.3,2.7h0l2.91.43a0,0,0,0,1,0,0l-2.11,2.1h0l.5,3a0,0,0,0,1,0,0l-2.61-1.4h0l-2.61,1.4a0,0,0,0,1,0,0l.5-3h0l-2.11-2.1a0,0,0,0,1,0,0l2.91-.43h0l1.3-2.7Z"/><path class="f" d="M88.68,226.66l1.3,2.7h0l2.91.43a0,0,0,0,1,0,0l-2.11,2.1h0l.5,3a0,0,0,0,1,0,0l-2.61-1.4h0l-2.61,1.4a0,0,0,0,1,0,0l.5-3h0l-2.11-2.1a0,0,0,0,1,0,0l2.91-.43h0l1.3-2.7Z"/><path class="f" d="M90.7,211.31,92,214h0l2.91.43a0,0,0,0,1,0,0l-2.11,2.1h0l.5,3a0,0,0,0,1,0,0l-2.61-1.4h0l-2.61,1.4a0,0,0,0,1,0,0l.5-3h0l-2.11-2.1a0,0,0,0,1,0,0l2.91-.43h0l1.3-2.7Z"/><path class="f" d="M106.92,195.9l1.3,2.7h0l2.91.43a0,0,0,0,1,0,0l-2.11,2.1h0l.5,3a0,0,0,0,1,0,0l-2.61-1.4h0l-2.61,1.4a0,0,0,0,1,0,0l.5-3h0l-2.11-2.1a0,0,0,0,1,0,0l2.91-.43h0l1.3-2.7Z"/><path class="f" d="M120.09,188.74l1.3,2.7h0l2.91.43a0,0,0,0,1,0,0l-2.11,2.1h0l.5,3a0,0,0,0,1,0,0l-2.61-1.4h0l-2.61,1.4a0,0,0,0,1,0,0l.5-3h0l-2.11-2.1a0,0,0,0,1,0,0l2.91-.43h0l1.3-2.7Z"/><path class="f" d="M116.46,212.33l1.3,2.7h0l2.91.43a0,0,0,0,1,0,0l-2.11,2.1h0l.5,3a0,0,0,0,1,0,0l-2.61-1.4h0l-2.61,1.4a0,0,0,0,1,0,0l.5-3h0l-2.11-2.1a0,0,0,0,1,0,0l2.91-.43h0l1.3-2.7Z"/><path class="f" d="M125.72,236.91l1.3,2.7h0l2.91.43a0,0,0,0,1,0,0l-2.11,2.1h0l.5,3a0,0,0,0,1,0,0l-2.61-1.4h0l-2.61,1.4a0,0,0,0,1,0,0l.5-3h0l-2.11-2.1a0,0,0,0,1,0,0l2.91-.43h0l1.3-2.7Z"/><path class="f" d="M147.48,201.15l1.3,2.7h0l2.91.43a0,0,0,0,1,0,0l-2.11,2.1h0l.5,3a0,0,0,0,1,0,0l-2.61-1.4h0l-2.61,1.4a0,0,0,0,1,0,0l.5-3h0l-2.11-2.1a0,0,0,0,1,0,0l2.91-.43h0l1.3-2.7Z"/><path class="f" d="M134.21,225.55l1.3,2.7h0l2.91.43a0,0,0,0,1,0,0l-2.11,2.1h0l.5,3a0,0,0,0,1,0,0l-2.61-1.4h0l-2.61,1.4a0,0,0,0,1,0,0l.5-3h0l-2.11-2.1a0,0,0,0,1,0,0l2.91-.43h0l1.3-2.7Z"/><path class="f" d="M140,238l1.3,2.7h0l2.91.43a0,0,0,0,1,0,0l-2.11,2.1h0l.5,3a0,0,0,0,1,0,0l-2.61-1.4h0l-2.61,1.4a0,0,0,0,1,0,0l.5-3h0l-2.11-2.1a0,0,0,0,1,0,0l2.91-.43h0L140,238Z"/><path class="f" d="M166.75,200l1.3,2.7h0l2.91.43a0,0,0,0,1,0,0l-2.11,2.1h0l.5,3a0,0,0,0,1,0,0l-2.61-1.4h0l-2.61,1.4a0,0,0,0,1,0,0l.5-3h0l-2.11-2.1a0,0,0,0,1,0,0l2.91-.43h0l1.3-2.7Z"/><path class="f" d="M141.53,212.36l1.3,2.7h0l2.91.43a0,0,0,0,1,0,0l-2.11,2.1h0l.5,3a0,0,0,0,1,0,0l-2.61-1.4h0l-2.61,1.4a0,0,0,0,1,0,0l.5-3h0l-2.11-2.1a0,0,0,0,1,0,0l2.91-.43h0l1.3-2.7Z"/><path class="f" d="M151.72,225.55l1.3,2.7h0l2.91.43a0,0,0,0,1,0,0l-2.11,2.1h0l.5,3a0,0,0,0,1,0,0l-2.61-1.4h0l-2.61,1.4a0,0,0,0,1,0,0l.5-3h0l-2.11-2.1a0,0,0,0,1,0,0l2.91-.43h0l1.3-2.7Z"/><path class="f" d="M158.26,213.59l1.3,2.7h0l2.91.43a0,0,0,0,1,0,0l-2.11,2.1h0l.5,3a0,0,0,0,1,0,0l-2.61-1.4h0l-2.61,1.4a0,0,0,0,1,0,0l.5-3h0l-2.11-2.1a0,0,0,0,1,0,0l2.91-.43h0l1.3-2.7Z"/><path class="f" d="M178.58,205.29l1.3,2.7h0l2.91.43a0,0,0,0,1,0,0l-2.11,2.1h0l.5,3a0,0,0,0,1,0,0l-2.61-1.4h0L177.24,208h0l1.3-2.7Z"/><path class="f" d="M188.62,214.88l1.3,2.7h0l2.91.43a0,0,0,0,1,0,0l-2.11,2.1h0l.5,3a0,0,0,0,1,0,0l-2.61-1.4h0l-2.61,1.4a0,0,0,0,1,0,0l.5-3h0l-2.11-2.1a0,0,0,0,1,0,0l2.91-.43h0l1.3-2.7Z"/><path class="f" d="M198.49,206.6l1.3,2.7h0l2.91.43a0,0,0,0,1,0,0l-2.11,2.1h0l.5,3a0,0,0,0,1,0,0l-2.61-1.4h0l-2.61,1.4a0,0,0,0,1,0,0l.5-3h0l-2.11-2.1a0,0,0,0,1,0,0l2.91-.43h0l1.3-2.7Z"/><path class="f" d="M195,192.88l1.3,2.7h0l2.91.43a0,0,0,0,1,0,0l-2.11,2.1h0l.5,3a0,0,0,0,1,0,0l-2.61-1.4h0l-2.61,1.4a0,0,0,0,1,0,0l.5-3h0l-2.11-2.1a0,0,0,0,1,0,0l2.91-.43h0l1.3-2.7Z"/><path class="f" d="M184.38,187.61l1.3,2.7h0l2.91.43a0,0,0,0,1,0,0l-2.11,2.1h0l.5,3a0,0,0,0,1,0,0l-2.61-1.4h0l-2.61,1.4a0,0,0,0,1,0,0l.5-3h0l-2.11-2.1a0,0,0,0,1,0,0l2.91-.43h0l1.3-2.7Z"/><path class="f" d="M185.07,225.55l1.3,2.7h0l2.91.43a0,0,0,0,1,0,0l-2.11,2.1h0l.5,3a0,0,0,0,1,0,0l-2.61-1.4h0l-2.61,1.4a0,0,0,0,1,0,0l.5-3h0l-2.11-2.1a0,0,0,0,1,0,0l2.91-.43h0l1.3-2.7Z"/><path class="f" d="M180.13,238l1.3,2.7h0l2.91.43a0,0,0,0,1,0,0l-2.11,2.1h0l.5,3a0,0,0,0,1,0,0l-2.61-1.4h0l-2.61,1.4a0,0,0,0,1,0,0l.5-3h0l-2.11-2.1a0,0,0,0,1,0,0l2.91-.43h0l1.3-2.7Z"/><path class="f" d="M196.86,235.74l1.3,2.7h0l2.91.43a0,0,0,0,1,0,0L199,241h0l.5,3a0,0,0,0,1,0,0l-2.61-1.4h0l-2.61,1.4a0,0,0,0,1,0,0l.5-3h0l-2.11-2.1a0,0,0,0,1,0,0l2.91-.43h0l1.3-2.7Z"/><path class="f" d="M173.32,214.88l1.3,2.7h0l2.91.43a0,0,0,0,1,0,0l-2.11,2.1h0l.5,3a0,0,0,0,1,0,0l-2.61-1.4h0l-2.61,1.4a0,0,0,0,1,0,0l.5-3h0l-2.11-2.1a0,0,0,0,1,0,0l2.91-.43h0l1.3-2.7Z"/><path class="f" d="M165.84,228.91l1.3,2.7h0l2.91.43a0,0,0,0,1,0,0l-2.11,2.1h0l.5,3a0,0,0,0,1,0,0l-2.61-1.4h0l-2.61,1.4a0,0,0,0,1,0,0l.5-3h0l-2.11-2.1a0,0,0,0,1,0,0l2.91-.43h0l1.3-2.7Z"/><path class="f" d="M172.64,236.27l1.3,2.7h0l2.91.43a0,0,0,0,1,0,0l-2.11,2.1h0l.5,3a0,0,0,0,1,0,0l-2.61-1.4h0l-2.61,1.4a0,0,0,0,1,0,0l.5-3h0l-2.11-2.1a0,0,0,0,1,0,0l2.91-.43h0l1.3-2.7Z"/><path class="f" d="M161.59,187.74l1.3,2.7h0l2.91.43a0,0,0,0,1,0,0l-2.11,2.1h0l.5,3a0,0,0,0,1,0,0l-2.61-1.4h0L159,196a0,0,0,0,1,0,0l.5-3h0l-2.11-2.1a0,0,0,0,1,0,0l2.91-.43h0l1.3-2.7Z"/><path class="f" d="M101.85,221.41l1.3,2.7h0l2.91.43a0,0,0,0,1,0,0l-2.11,2.1h0l.5,3a0,0,0,0,1,0,0l-2.61-1.4h0l-2.61,1.4a0,0,0,0,1,0,0l.5-3h0l-2.11-2.1a0,0,0,0,1,0,0l2.91-.43h0l1.3-2.7Z"/><path class="f" d="M122.94,220l1.3,2.7h0l2.91.43a0,0,0,0,1,0,0l-2.11,2.1h0l.5,3a0,0,0,0,1,0,0l-2.61-1.4h0l-2.61,1.4a0,0,0,0,1,0,0l.5-3h0l-2.11-2.1a0,0,0,0,1,0,0l2.91-.43h0l1.3-2.7Z"/><path class="f" d="M130.76,200l1.3,2.7h0l2.91.43a0,0,0,0,1,0,0l-2.11,2.1h0l.5,3a0,0,0,0,1,0,0l-2.61-1.4h0l-2.61,1.4a0,0,0,0,1,0,0l.5-3h0l-2.11-2.1a0,0,0,0,1,0,0l2.91-.43h0l1.3-2.7Z"/><path class="f" d="M140.68,188.74l1.3,2.7h0l2.91.43a0,0,0,0,1,0,0L142.8,194h0l.5,3a0,0,0,0,1,0,0l-2.61-1.4h0l-2.61,1.4a0,0,0,0,1,0,0l.5-3h0l-2.11-2.1a0,0,0,0,1,0,0l2.91-.43h0l1.3-2.7Z"/><path class="f" d="M111.17,229.69l1.3,2.7h0l2.91.43a0,0,0,0,1,0,0l-2.11,2.1h0l.5,3a0,0,0,0,1,0,0l-2.61-1.4h0l-2.61,1.4a0,0,0,0,1,0,0l.5-3h0l-2.11-2.1a0,0,0,0,1,0,0l2.91-.43h0l1.3-2.7Z"/><path class="f" d="M118.69,202.47l1.3,2.7h0l2.91.43a0,0,0,0,1,0,0l-2.11,2.1h0l.5,3a0,0,0,0,1,0,0l-2.61-1.4h0l-2.61,1.4a0,0,0,0,1,0,0l.5-3h0l-2.11-2.1a0,0,0,0,1,0,0l2.91-.43h0l1.3-2.7Z"/><path class="r" d="M11.39,141.08c.77-.66,1.42-.75,1.81-.32a.7.7,0,0,0,1.12,0c1.66-2.39,3.34-4.92,4.65-7.08a.68.68,0,0,0,.09-.27A6.16,6.16,0,0,1,21.3,129a4.5,4.5,0,0,1,2.84-1.22c1.54,0,1.9,1.23.2,4.09a.69.69,0,0,0-.1.3c-.05.68-.1,1.58-.1,2.28,0,4.12.75,7.89.64,11a13.43,13.43,0,0,1-.26,2.19.7.7,0,0,0,1.15.67,12.31,12.31,0,0,0,3.17-4.89c.52-1.33,1.39-.93,1.8,0a4.68,4.68,0,0,1-.58,4,12.41,12.41,0,0,1-10.61,6.44c-3.48.12-7-.81-8.93-4.47a7.83,7.83,0,0,1-1-3.83A5.87,5.87,0,0,1,11.39,141.08Zm7.83,3.42c0-1,0-2.09-.06-3.09a.7.7,0,0,0-1.29-.36c-1,1.63-2.2,3.36-3.4,5.09a.71.71,0,0,0-.1.59c.71,2.56,1.88,4.44,3.11,4.44S19.22,148.27,19.22,144.5Z"/><path class="r" d="M42.65,153.9c-3.83,0-5.57-1.91-5.57-4.93,0-3.65,2.84-8.7,5-12.12,1.1-1.91,2-3.31,1.57-3.31s-6,3.65-9.11,8.64a77.8,77.8,0,0,0-5.45,10.73c-.46,1-1.33,1.22-2,.35-.93-1.1-1.74-2.49-.29-6.32,2.32-6.09,13.8-25.52,18.5-31.55.93-1.16,1.8-.93,2.32.23a5.34,5.34,0,0,1,.46,2.2A13.44,13.44,0,0,1,46,124c-1.16,1.91-4.76,7.31-5.34,8.12a9.72,9.72,0,0,1,4.87-2c1.68,0,3.36,1.8,3.36,4.06a4.79,4.79,0,0,1-.64,2.44c-3.19,5.68-4.64,8.12-5.28,9.51a9.39,9.39,0,0,0-.75,3.42c0,1.22.29,2,1.1,2,2,0,5.1-4.12,6.84-7.66a.93.93,0,0,1,1.8,0,4.3,4.3,0,0,1-.17,3.77C50.13,151,46.36,153.9,42.65,153.9Z"/><path class="r" d="M65.21,129.83a3.78,3.78,0,0,1,3.89,2.55l1.1-1.8c.7-1.16,1.68-1.22,2.38-.41,1,1.16,1.51,3.71,0,6.73-1.51,3.19-6.38,9.51-6.38,13.4,0,.87.23,1.39.81,1.39,2.09,0,5-3.94,6.9-7.71.64-1.16,1.16-1.22,1.74,0a4.81,4.81,0,0,1-.23,3.77c-1.51,3.19-5.22,6.26-8.76,6.26-2.9,0-4.58-1.51-5-3.65-1.68,1.62-4.29,3.42-6.61,3.42-3.42,0-5.28-2.49-5.28-5.92a15.66,15.66,0,0,1,3.13-8.64C57.49,132.55,62.25,129.83,65.21,129.83Zm-2,13c2.26-3.94,3.31-6.79,3.31-8.29,0-.7-.12-1.1-.7-1.1-1.16,0-5.16,3.65-8.12,8.41a16.33,16.33,0,0,0-2.73,7.66c0,1,.23,1.74.81,1.74C57.67,151.23,60.33,147.69,63.18,142.82Z"/><path class="r" d="M93.22,124.32c-1.8,6.9-8.12,13.75-13.22,17.17a22.66,22.66,0,0,0-1.91,7.6c0,1.39.35,2.38,1.1,2.38,2.67,0,6-3.89,8.24-8.06.75-1.45,2-1.45,2.44.06a5.6,5.6,0,0,1-.58,3.77c-.87,1.74-5.16,6.5-10,6.5-3.54,0-5.74-2-5.74-6a13.89,13.89,0,0,1,.41-3.31c2.26-9.63,8.82-20.36,14.5-26.33,1.1-1.1,2.15-1.45,3.25-.41a5.66,5.66,0,0,1,1.91,4.23A7.7,7.7,0,0,1,93.22,124.32Z"/><path class="r" d="M106.56,124.32c-1.8,6.9-8.12,13.75-13.22,17.17a22.66,22.66,0,0,0-1.91,7.6c0,1.39.35,2.38,1.1,2.38,2.67,0,6-3.89,8.24-8.06.75-1.45,2-1.45,2.44.06a5.6,5.6,0,0,1-.58,3.77c-.87,1.74-5.16,6.5-10,6.5-3.54,0-5.74-2-5.74-6a13.89,13.89,0,0,1,.41-3.31c2.26-9.63,8.82-20.36,14.5-26.33,1.1-1.1,2.15-1.45,3.25-.41a5.66,5.66,0,0,1,1.91,4.23A7.7,7.7,0,0,1,106.56,124.32Z"/><path class="r" d="M123.49,133.13a7.44,7.44,0,0,1-.06,1.16c2.49-2.32,5.28-4.23,7.37-4.23,1.68,0,3.25,2,3.25,4.23,0,1.28-1,3.13-2.9,6.38-1.86,3-3.83,6.79-3.83,8.93,0,1.22.41,2,1.16,2,2,0,5-3.77,7.08-7.66.58-1.1,1.39-1,1.91-.23a4.66,4.66,0,0,1-.29,4.06c-1.62,3.19-5.86,6.26-9.34,6.26-3.89,0-5.57-2-5.57-5s2.67-8.47,4.93-12.06c1.22-1.91,2.15-3.42,1.74-3.42s-3.36,1.62-6.55,5.22c-3.19,3.36-5.8,9-8.18,14.27-.41.93-1.16,1.28-2.09.35a4.23,4.23,0,0,1-1.28-3.19,10.63,10.63,0,0,1,.52-3c1.1-3.25,5.57-11.37,9.16-16.76.75-1.1,1.62-1,2.2,0A5.23,5.23,0,0,1,123.49,133.13Z"/><path class="r" d="M154,141.49c-1.22,4.81-4.93,10.5-9.34,12a6.49,6.49,0,0,1-2.09.35,7.06,7.06,0,0,1-5.68-3,8.21,8.21,0,0,1-1.62-5,17.4,17.4,0,0,1,2.44-8.12c2.61-4.64,6.26-7.54,10.09-7.54a4.31,4.31,0,0,1,3.83,2.15c1.62,1.91,3.25,2.32,2.73,7.25,1.51,0,1.62.52,1.16,1.1A2.42,2.42,0,0,1,154,141.49Zm-12.82,9.4c1.51,0,3.83-2.15,6-6.09a19.85,19.85,0,0,0,1.91-4.18,7.35,7.35,0,0,1-3.54-4.7,18.63,18.63,0,0,0-3.31,4.35,19.29,19.29,0,0,0-2.44,8.18C139.79,150.19,140.31,150.88,141.18,150.88Zm9.63-15.95c0-.87-.46-1.22-.87-1.22s-.87.46-.87,1.39a5.8,5.8,0,0,0,.93,3.31A9.7,9.7,0,0,0,150.81,134.93Z"/><path class="r" d="M155.39,142.53a121.2,121.2,0,0,1,5.68-11.6,4.51,4.51,0,0,1-3.31-1.57c-.81-1.22-.23-1.8,1.1-1.74a33.2,33.2,0,0,0,4.18-.12c1.8-3.13,3-5,4.35-7,.87-1.28,1.57-1.22,2.2-.12a5.22,5.22,0,0,1,.64,2.38,10.21,10.21,0,0,1-.93,4,4.19,4.19,0,0,1,3.19,1.86c.58,1,.17,1.74-1.22,1.57a17.53,17.53,0,0,0-3.83.17c-2.2,3.77-5.51,9.51-7.54,13.92a11,11,0,0,0-1,4.35c0,1.74.58,3,1.57,3,2.26,0,5.28-3.65,7.31-8,.64-1.39,2-1.51,2.38.06a4.64,4.64,0,0,1-.58,3.42c-.81,1.74-4.7,6.73-9.57,6.73-3.07,0-5.74-2.49-5.74-6.5A12.71,12.71,0,0,1,155.39,142.53Z"/><path class="r" d="M198.37,144.73A19.86,19.86,0,0,1,193.2,152c4.29-.87,7.6-4.7,9.28-8.06.7-1.33,1.91-1,2.15.12a6.16,6.16,0,0,1-.81,3.94c-2.61,4.7-7.48,6.32-12.3,6.32-4.58,0-7.42-1.57-8.76-4.7-2.55,4.76-5,9.74-7.48,15.43-.46,1-1.16,1.28-1.74.58a4.5,4.5,0,0,1-1.16-3.13,12.43,12.43,0,0,1,.7-3.77c1.68-5.51,11.25-23.55,14.85-28.36,1-1.28,1.8-1,2.26-.41a3.53,3.53,0,0,1,.58,2.15,8.84,8.84,0,0,1,4.7-1.74c3.48,0,5.16,3.13,5.16,6.09A20.27,20.27,0,0,1,198.37,144.73Zm-11.66-2.26c-1.8,3.71-1.39,7.89.12,7.89,1.8,0,4.41-3.19,6.79-8a18.35,18.35,0,0,0,2.09-7.6c0-1-.12-1.74-.41-1.86-1-.46-4.23,2.2-6.73,6.44Z"/><path class="r" d="M217.16,129.83a3.78,3.78,0,0,1,3.89,2.55l1.1-1.8c.7-1.16,1.68-1.22,2.38-.41,1,1.16,1.51,3.71,0,6.73-1.51,3.19-6.38,9.51-6.38,13.4,0,.87.23,1.39.81,1.39,2.09,0,5-3.94,6.9-7.71.64-1.16,1.16-1.22,1.74,0a4.81,4.81,0,0,1-.23,3.77c-1.51,3.19-5.22,6.26-8.76,6.26-2.9,0-4.58-1.51-5-3.65-1.68,1.62-4.29,3.42-6.61,3.42-3.42,0-5.28-2.49-5.28-5.92a15.66,15.66,0,0,1,3.13-8.64C209.44,132.55,214.2,129.83,217.16,129.83Zm-2,13c2.26-3.94,3.31-6.79,3.31-8.29,0-.7-.12-1.1-.7-1.1-1.16,0-5.16,3.65-8.12,8.41a16.33,16.33,0,0,0-2.73,7.66c0,1,.23,1.74.81,1.74C209.62,151.23,212.28,147.69,215.13,142.82Z"/><path class="r" d="M226.32,141.08c1.16-1,2-.7,2.2.7,1.91-2.73,3.94-5.74,5.45-8.24a6.23,6.23,0,0,1,2.26-4.52,4.5,4.5,0,0,1,2.84-1.22c1.57,0,1.91,1.28.12,4.23-.06.7-.12,1.68-.12,2.44,0,4.12.75,7.89.64,11a13.82,13.82,0,0,1-.15,1.53.92.92,0,0,0,1.57.79,12.42,12.42,0,0,0,2.64-4.35c.52-1.33,1.39-.93,1.8,0a4.68,4.68,0,0,1-.58,4,12.41,12.41,0,0,1-10.61,6.44c-3.48.12-7-.81-8.93-4.47a7.83,7.83,0,0,1-1-3.83A5.87,5.87,0,0,1,226.32,141.08Zm7.83,3.42c0-1.86-.06-3.71-.17-5.28-1.39,2.2-3,4.7-4.76,7.19.7,2.73,1.91,4.76,3.19,4.76S234.15,148.27,234.15,144.5Z"/><path class="r" d="M243.83,141.08c1.16-1,2-.7,2.2.7C248,139,250,136,251.49,133.54a6.23,6.23,0,0,1,2.26-4.52,4.5,4.5,0,0,1,2.84-1.22c1.57,0,1.91,1.28.12,4.23-.06.7-.12,1.68-.12,2.44,0,4.12.75,7.89.64,11a13.52,13.52,0,0,1-.24,2.06.74.74,0,0,0,1.25.67,12.33,12.33,0,0,0,3-4.77c.52-1.33,1.39-.93,1.8,0a4.68,4.68,0,0,1-.58,4,12.41,12.41,0,0,1-10.61,6.44c-3.48.12-7-.81-8.93-4.47a7.83,7.83,0,0,1-1-3.83A5.87,5.87,0,0,1,243.83,141.08Zm7.83,3.42c0-1.86-.06-3.71-.17-5.28-1.39,2.2-3,4.7-4.76,7.19.7,2.73,1.91,4.76,3.19,4.76S251.66,148.27,251.66,144.5Z"/><text class="s" transform="translate(10.81 152.97)">shall not <tspan class="t" x="169.12" y="0">p</tspan><tspan x="191.33" y="0">ass</tspan></text><path class="u" d="M105,117.65c-1.1-1-2.15-.7-3.25.41a64.83,64.83,0,0,0-14.19,25.13c0,.07-.1.13-.14.22-2.2,4.18-5.57,8.06-8.24,8.06-.75,0-1.1-1-1.1-2.38a22.66,22.66,0,0,1,1.91-7.6c5.1-3.42,11.43-10.27,13.22-17.17a7.7,7.7,0,0,0,.35-2.44,5.66,5.66,0,0,0-1.91-4.23c-1.1-1-2.15-.7-3.25.41-5.55,5.83-11.91,16.18-14.31,25.62-.06.09-.12.19-.18.3-1.91,3.77-4.81,7.71-6.9,7.71-.58,0-.81-.52-.81-1.39,0-3.89,4.87-10.21,6.38-13.4,1.51-3,1-5.57,0-6.73-.7-.81-1.68-.75-2.38.41l-1.1,1.8a3.78,3.78,0,0,0-3.89-2.55c-3,0-7.71,2.73-12.35,9.4a17.87,17.87,0,0,0-2.2,4.09,1.28,1.28,0,0,0-.47.55c-1.74,3.54-4.81,7.66-6.84,7.66-.81,0-1.1-.75-1.1-2a9.39,9.39,0,0,1,.75-3.42c.64-1.39,2.09-3.83,5.28-9.51a4.79,4.79,0,0,0,.64-2.44c0-2.26-1.68-4.06-3.36-4.06a9.72,9.72,0,0,0-4.87,2c.58-.81,4.18-6.21,5.34-8.12a13.44,13.44,0,0,0,2.09-6.15,5.34,5.34,0,0,0-.46-2.2c-.52-1.16-1.39-1.39-2.32-.23-4.7,6-16.18,25.46-18.5,31.55l-.11.3a13.85,13.85,0,0,1-2.91,2.6,11.09,11.09,0,0,0,1-4.35c.12-3.13-.64-6.9-.64-11,0-.75.06-1.74.12-2.44,1.8-3,1.45-4.23-.12-4.23A4.5,4.5,0,0,0,21.3,129,6.23,6.23,0,0,0,19,133.54c-1.51,2.49-3.54,5.51-5.45,8.24-.17-1.39-1-1.68-2.2-.7a5.87,5.87,0,0,0-1.86,4.52,7.83,7.83,0,0,0,1,3.83c2,3.65,5.45,4.58,8.93,4.47a12.93,12.93,0,0,0,6.75-2.2,4.35,4.35,0,0,0,.91,1.56c.7.87,1.57.7,2-.35a77.8,77.8,0,0,1,5.45-10.73c3.07-5,8.58-8.64,9.11-8.64s-.46,1.39-1.57,3.31c-2.2,3.42-5,8.47-5,12.12,0,3,1.74,4.93,5.57,4.93a10.47,10.47,0,0,0,7.4-3.71,4.86,4.86,0,0,0,4.95,3.6c2.32,0,4.93-1.8,6.61-3.42.46,2.15,2.15,3.65,5,3.65,2.63,0,5.35-1.7,7.2-3.88.75,2.38,2.67,3.59,5.39,3.59,3.12,0,6-2,7.9-3.81.7,2.52,2.64,3.81,5.44,3.81,4.87,0,9.16-4.76,10-6.5a5.6,5.6,0,0,0,.58-3.77c-.41-1.51-1.68-1.51-2.44-.06-2.2,4.18-5.57,8.06-8.24,8.06-.75,0-1.1-1-1.1-2.38a22.66,22.66,0,0,1,1.91-7.6c5.1-3.42,11.43-10.27,13.22-17.17a7.7,7.7,0,0,0,.35-2.44A5.66,5.66,0,0,0,105,117.65ZM86.61,128.9c2-3.42,3.48-5.68,3.71-5.57s-.41,2.78-2.38,6.09a36.44,36.44,0,0,1-5.8,7.37C82.55,135.8,85.1,131.45,86.61,128.9ZM17.48,151.17c-1.28,0-2.49-2-3.19-4.76,1.74-2.49,3.36-5,4.76-7.19.12,1.57.17,3.42.17,5.28C19.22,148.27,18.69,151.17,17.48,151.17Zm38.28.06c-.58,0-.81-.7-.81-1.74a16.33,16.33,0,0,1,2.73-7.66c3-4.76,7-8.41,8.12-8.41.58,0,.7.41.7,1.1,0,1.51-1,4.35-3.31,8.29C60.33,147.69,57.67,151.23,55.75,151.23Zm45.53-21.81a36.44,36.44,0,0,1-5.8,7.37c.41-1,3-5.34,4.47-7.89,2-3.42,3.48-5.68,3.71-5.57S103.25,126.12,101.28,129.42Z"/><path class="u" d="M154.35,139.57c.52-4.93-1.1-5.34-2.73-7.25a4.31,4.31,0,0,0-3.83-2.15c-3.83,0-7.48,2.9-10.09,7.54a19.19,19.19,0,0,0-2.31,6.51c-2.08,3.78-5,7.35-6.91,7.35-.75,0-1.16-.75-1.16-2,0-2.15,2-6,3.83-8.93,1.86-3.25,2.9-5.1,2.9-6.38,0-2.2-1.57-4.23-3.25-4.23-2.09,0-4.87,1.91-7.37,4.23a7.44,7.44,0,0,0,.06-1.16,5.23,5.23,0,0,0-.75-2.73c-.58-1-1.45-1.1-2.2,0-3.6,5.39-8.06,13.51-9.16,16.76a10.63,10.63,0,0,0-.52,3,4.23,4.23,0,0,0,1.28,3.19c.93.93,1.68.58,2.09-.35,2.38-5.22,5-10.9,8.18-14.27,3.19-3.6,6-5.22,6.55-5.22s-.52,1.51-1.74,3.42c-2.26,3.6-4.93,8.93-4.93,12.06s1.68,5,5.57,5c2.85,0,6.2-2.06,8.21-4.55a7.71,7.71,0,0,0,.83,1.42,7.06,7.06,0,0,0,5.68,3,6.49,6.49,0,0,0,2.09-.35c4.41-1.51,8.12-7.19,9.34-12a2.42,2.42,0,0,0,1.51-.81C156,140.09,155.85,139.57,154.35,139.57Zm-7.19,5.22c-2.15,3.94-4.47,6.09-6,6.09-.87,0-1.39-.7-1.39-2.44a19.29,19.29,0,0,1,2.44-8.18,18.63,18.63,0,0,1,3.31-4.35,7.35,7.35,0,0,0,3.54,4.7A19.85,19.85,0,0,1,147.16,144.79Zm2.84-6.38a5.8,5.8,0,0,1-.93-3.31c0-.93.52-1.39.87-1.39s.87.35.87,1.22A9.7,9.7,0,0,1,150,138.41Z"/><path class="u" d="M172.5,128.67a4.19,4.19,0,0,0-3.19-1.86,10.21,10.21,0,0,0,.93-4,5.22,5.22,0,0,0-.64-2.38c-.64-1.1-1.33-1.16-2.2.12-1.33,1.91-2.55,3.83-4.35,7a33.2,33.2,0,0,1-4.18.12c-1.33-.06-1.91.52-1.1,1.74a4.51,4.51,0,0,0,3.31,1.57,121.2,121.2,0,0,0-5.68,11.6,12.71,12.71,0,0,0-1.16,4.81c0,4,2.67,6.5,5.74,6.5,4.87,0,8.76-5,9.57-6.73a4.64,4.64,0,0,0,.58-3.42c-.41-1.57-1.74-1.45-2.38-.06-2,4.35-5,8-7.31,8-1,0-1.57-1.22-1.57-3a11,11,0,0,1,1-4.35c2-4.41,5.34-10.15,7.54-13.92a17.53,17.53,0,0,1,3.83-.17C172.67,130.41,173.08,129.71,172.5,128.67Z"/><path class="u" d="M263.09,143.46c-.41-.93-1.28-1.33-1.8,0a12.58,12.58,0,0,1-5,6.38,11.09,11.09,0,0,0,1-4.35c.12-3.13-.64-6.9-.64-11,0-.75.06-1.74.12-2.44,1.8-3,1.45-4.23-.12-4.23a4.5,4.5,0,0,0-2.84,1.22,6.23,6.23,0,0,0-2.26,4.52C250,136,248,139,246,141.78c-.17-1.39-1-1.68-2.2-.7A5.87,5.87,0,0,0,242,145.6a8,8,0,0,0,.08,1.09,13.39,13.39,0,0,1-3.33,3.15,11.07,11.07,0,0,0,1-4.35c.12-3.13-.64-6.9-.64-11,0-.75.06-1.74.12-2.44,1.8-3,1.45-4.23-.12-4.23a4.5,4.5,0,0,0-2.84,1.22,6.23,6.23,0,0,0-2.26,4.52c-1.51,2.49-3.54,5.51-5.45,8.24-.17-1.39-1-1.68-2.2-.7a5.87,5.87,0,0,0-1.86,4.52c0,.26,0,.51,0,.77-1.77,2.88-3.92,5.32-5.56,5.32-.58,0-.81-.52-.81-1.39,0-3.89,4.87-10.21,6.38-13.4,1.51-3,1-5.57,0-6.73-.7-.81-1.68-.75-2.38.41l-1.1,1.8a3.78,3.78,0,0,0-3.89-2.55c-3,0-7.71,2.73-12.35,9.4a17.53,17.53,0,0,0-2.61,5.3c-1.75,3.22-4.93,6.69-9,7.52a19.86,19.86,0,0,0,5.16-7.31,20.27,20.27,0,0,0,2.26-8.24c0-3-1.68-6.09-5.16-6.09a8.84,8.84,0,0,0-4.7,1.74,3.53,3.53,0,0,0-.58-2.15c-.46-.64-1.22-.87-2.26.41-3.6,4.81-13.17,22.85-14.85,28.36a12.43,12.43,0,0,0-.7,3.77,4.5,4.5,0,0,0,1.16,3.13c.58.7,1.28.46,1.74-.58,2.44-5.68,4.93-10.67,7.48-15.43,1.33,3.13,4.18,4.7,8.76,4.7,3.89,0,7.82-1.06,10.56-3.95a4.84,4.84,0,0,0,4.87,3.37c2.32,0,4.93-1.8,6.61-3.42.46,2.15,2.15,3.65,5,3.65,2.65,0,5.39-1.72,7.23-3.92,2,3.11,5.28,3.91,8.54,3.8a12.61,12.61,0,0,0,8.86-4c2,3.26,5.33,4.11,8.66,4a12.41,12.41,0,0,0,10.61-6.44A4.68,4.68,0,0,0,263.09,143.46Zm-76.27,6.9c-1.51,0-1.91-4.18-.12-7.89l1.86-3.13c2.49-4.23,5.68-6.9,6.73-6.44.29.12.41.81.41,1.86a18.35,18.35,0,0,1-2.09,7.6C191.23,147.17,188.62,150.36,186.82,150.36Zm20.88.87c-.58,0-.81-.7-.81-1.74a16.33,16.33,0,0,1,2.73-7.66c3-4.76,7-8.41,8.12-8.41.58,0,.7.41.7,1.1,0,1.51-1,4.35-3.31,8.29C212.28,147.69,209.62,151.23,207.7,151.23Zm24.71-.06c-1.28,0-2.49-2-3.19-4.76,1.74-2.49,3.36-5,4.76-7.19.12,1.57.17,3.42.17,5.28C234.15,148.27,233.63,151.17,232.41,151.17Zm17.51,0c-1.28,0-2.49-2-3.19-4.76,1.74-2.49,3.36-5,4.76-7.19.12,1.57.17,3.42.17,5.28C251.66,148.27,251.14,151.17,249.92,151.17Z"/></g></svg>